<svg width="27" height="28" viewBox="0 0 27 28" fill="none" xmlns="http://www.w3.org/2000/svg">
<g id="backgammon">
<path id="Vector" d="M17.1827 2.39782C15.9183 1.88208 13.3445 1.03813 11.7189 0.709924C7.7453 -0.180913 4.90054 1.83519 3.1395 5.39854L0.430207 12.6659C-0.337426 14.7758 -0.0664954 17.1201 1.15269 18.9486L1.55908 19.5113C5.17147 23.9186 5.17147 23.9186 11.1771 26.1691L16.1893 27.3412C19.2598 28.0445 22.4206 26.3566 23.6398 23.3559L26.2588 16.8856C27.6134 13.5567 27.1167 9.66518 24.7235 7.08644L24.2268 6.61758C22.2852 4.8359 19.8016 3.52309 17.1827 2.39782Z" fill="url(#paint0_linear_238_309)"/>
<path id="SVGID_9_" d="M7.65368 17.637C5.26048 21.4816 2.37056 21.9505 1.19654 18.7154C0.0225122 15.4802 1.01592 9.71322 3.40913 5.82167C5.80233 1.977 8.60193 1.69569 9.77596 4.93083C10.95 8.16597 10.0469 13.7923 7.65368 17.637Z" fill="url(#paint1_linear_238_309)"/>
<g id="Group">
<path id="Vector_2" d="M5.98449 6.10129C5.6684 6.89835 5.21685 7.22655 4.94593 6.85146C4.675 6.47638 4.675 5.53865 4.99108 4.78847C5.26201 3.99141 5.71356 3.66321 5.98449 3.99141C6.30057 4.3665 6.30057 5.30422 5.98449 6.10129Z" fill="url(#paint2_linear_238_309)"/>
<path id="Vector_3" d="M9.59679 9.38254C9.2807 10.1796 8.82916 10.5078 8.55823 10.1327C8.2873 9.75762 8.2873 8.8199 8.60338 8.06972C8.91947 7.27266 9.37101 6.94446 9.64194 7.27266C9.91287 7.64775 9.91287 8.58547 9.59679 9.38254Z" fill="url(#paint3_linear_238_309)"/>
<path id="Vector_4" d="M5.53038 12.196C5.2143 12.9931 4.76275 13.3213 4.49182 12.9462C4.22089 12.5711 4.2209 11.6334 4.53698 10.8832C4.85306 10.0861 5.30461 9.75793 5.57554 10.0861C5.84647 10.4612 5.84647 11.3989 5.53038 12.196Z" fill="url(#paint4_linear_238_309)"/>
<path id="Vector_5" d="M5.80406 18.9012C5.48797 19.6982 4.99127 20.0264 4.72034 19.6045C4.44941 19.1825 4.44941 18.1979 4.7655 17.4008C5.08158 16.6038 5.57829 16.2756 5.84922 16.6975C6.12015 17.0726 6.07499 18.1041 5.80406 18.9012Z" fill="url(#paint5_linear_238_309)"/>
<path id="Vector_6" d="M2.19175 15.618C1.87567 16.415 1.37896 16.7432 1.10803 16.3213C0.837105 15.8993 0.837106 14.9147 1.15319 14.1176C1.46927 13.3206 1.96598 12.9924 2.23691 13.4143C2.50783 13.7894 2.46268 14.8209 2.19175 15.618Z" fill="url(#paint6_linear_238_309)"/>
</g>
<path id="SVGID_5_" d="M25.1299 7.93221C26.5749 9.90143 24.3623 10.4641 20.1177 9.24502C15.7829 7.9791 10.6804 5.2597 8.78388 3.05605C6.79706 0.805518 9.14511 0.102226 13.9315 1.5557C18.6276 3.00917 23.6398 5.86922 25.1299 7.93221Z" fill="url(#paint7_linear_238_309)"/>
<path id="Vector_7" d="M18.0862 5.68031C18.4474 6.0554 18.0862 6.19606 17.3186 5.96162C16.5058 5.72719 15.6027 5.21145 15.2414 4.83636C14.8802 4.46127 15.2414 4.32061 16.0091 4.55504C16.8219 4.78947 17.725 5.25833 18.0862 5.68031Z" fill="url(#paint8_linear_238_309)"/>
<path id="SVGID_1_" d="M24.9037 20.2148C23.1879 25.0441 18.1305 27.9979 13.6602 26.732C9.18985 25.4661 6.97726 20.5431 8.69315 15.7138C10.409 10.8845 15.4664 7.93068 19.9367 9.19661C24.407 10.4625 26.6196 15.3387 24.9037 20.2148Z" fill="url(#paint9_linear_238_309)"/>
<g id="Group_2">
<path id="Vector_8" d="M15.7808 12.5251C15.4196 13.416 14.4713 13.9317 13.6586 13.6973C12.8458 13.4629 12.4394 12.6189 12.8006 11.7281C13.1619 10.8372 14.1101 10.3215 14.9229 10.509C15.7357 10.7435 16.1421 11.6343 15.7808 12.5251Z" fill="url(#paint10_linear_238_309)"/>
<path id="Vector_9" d="M20.6117 23.7293C20.2505 24.5733 19.3474 25.089 18.5798 24.9015C17.767 24.7139 17.4057 23.87 17.767 23.0729C18.1282 22.229 19.0313 21.7132 19.8441 21.9008C20.5666 22.0883 20.9278 22.8854 20.6117 23.7293Z" fill="url(#paint11_linear_238_309)"/>
<path id="Vector_10" d="M12.1227 21.7151C11.8066 22.559 10.8583 23.0748 10.0455 22.8872C9.23275 22.6997 8.82636 21.8557 9.14244 21.0118C9.45853 20.1678 10.4068 19.6052 11.2647 19.8396C12.0324 20.0272 12.4387 20.8711 12.1227 21.7151Z" fill="url(#paint12_linear_238_309)"/>
<path id="Vector_11" d="M24.3161 14.7287C23.9548 15.5727 23.0517 16.0884 22.2389 15.9009C21.4262 15.7134 21.0649 14.8225 21.4262 13.9786C21.7874 13.1346 22.6905 12.572 23.5033 12.8064C24.3161 13.0408 24.6773 13.8848 24.3161 14.7287Z" fill="url(#paint13_linear_238_309)"/>
</g>
</g>
<defs>
<linearGradient id="paint0_linear_238_309" x1="10.0323" y1="24.7084" x2="16.8993" y2="5.68331" gradientUnits="userSpaceOnUse">
<stop stop-color="#AE1110"/>
<stop offset="0.4385" stop-color="#E60018"/>
<stop offset="0.7689" stop-color="#F56867"/>
<stop offset="1" stop-color="#EF814B"/>
</linearGradient>
<linearGradient id="paint1_linear_238_309" x1="3.01109" y1="9.53402" x2="7.51156" y2="13.3476" gradientUnits="userSpaceOnUse">
<stop stop-color="#A60605"/>
<stop offset="0.3612" stop-color="#AC0A08"/>
<stop offset="0.8451" stop-color="#BD1412"/>
<stop offset="1" stop-color="#C41816"/>
</linearGradient>
<linearGradient id="paint2_linear_238_309" x1="4.54779" y1="6.00298" x2="6.52023" y2="5.20289" gradientUnits="userSpaceOnUse">
<stop stop-color="white"/>
<stop offset="0.1082" stop-color="#FEF9F9"/>
<stop offset="0.2536" stop-color="#FAE9E8"/>
<stop offset="0.4202" stop-color="#F4CECC"/>
<stop offset="0.6024" stop-color="#EBA8A5"/>
<stop offset="0.7975" stop-color="#E07772"/>
<stop offset="1" stop-color="#D33D36"/>
</linearGradient>
<linearGradient id="paint3_linear_238_309" x1="8.15996" y1="9.28416" x2="10.1324" y2="8.48408" gradientUnits="userSpaceOnUse">
<stop stop-color="white"/>
<stop offset="0.1082" stop-color="#FEF9F9"/>
<stop offset="0.2536" stop-color="#FAE9E8"/>
<stop offset="0.4202" stop-color="#F4CECC"/>
<stop offset="0.6024" stop-color="#EBA8A5"/>
<stop offset="0.7975" stop-color="#E07772"/>
<stop offset="1" stop-color="#D33D36"/>
</linearGradient>
<linearGradient id="paint4_linear_238_309" x1="4.09343" y1="12.0975" x2="6.06586" y2="11.2974" gradientUnits="userSpaceOnUse">
<stop stop-color="white"/>
<stop offset="0.1082" stop-color="#FEF9F9"/>
<stop offset="0.2536" stop-color="#FAE9E8"/>
<stop offset="0.4202" stop-color="#F4CECC"/>
<stop offset="0.6024" stop-color="#EBA8A5"/>
<stop offset="0.7975" stop-color="#E07772"/>
<stop offset="1" stop-color="#D33D36"/>
</linearGradient>
<linearGradient id="paint5_linear_238_309" x1="4.31909" y1="18.717" x2="6.33063" y2="17.9011" gradientUnits="userSpaceOnUse">
<stop stop-color="white"/>
<stop offset="0.1082" stop-color="#FEF9F9"/>
<stop offset="0.2536" stop-color="#FAE9E8"/>
<stop offset="0.4202" stop-color="#F4CECC"/>
<stop offset="0.6024" stop-color="#EBA8A5"/>
<stop offset="0.7975" stop-color="#E07772"/>
<stop offset="1" stop-color="#D33D36"/>
</linearGradient>
<linearGradient id="paint6_linear_238_309" x1="0.706923" y1="15.4339" x2="2.71846" y2="14.6179" gradientUnits="userSpaceOnUse">
<stop stop-color="white"/>
<stop offset="0.1082" stop-color="#FEF9F9"/>
<stop offset="0.2536" stop-color="#FAE9E8"/>
<stop offset="0.4202" stop-color="#F4CECC"/>
<stop offset="0.6024" stop-color="#EBA8A5"/>
<stop offset="0.7975" stop-color="#E07772"/>
<stop offset="1" stop-color="#D33D36"/>
</linearGradient>
<linearGradient id="paint7_linear_238_309" x1="16.2537" y1="6.65906" x2="17.7219" y2="3.62456" gradientUnits="userSpaceOnUse">
<stop stop-color="#FE533E"/>
<stop offset="0.3538" stop-color="#FD4D39"/>
<stop offset="0.8277" stop-color="#F93C2B"/>
<stop offset="1" stop-color="#F73425"/>
</linearGradient>
<linearGradient id="paint8_linear_238_309" x1="17.2082" y1="6.60195" x2="18.0464" y2="5.64026" gradientUnits="userSpaceOnUse">
<stop stop-color="#D33D36"/>
<stop offset="0.0909259" stop-color="#DD6863"/>
<stop offset="0.1912" stop-color="#E6908C"/>
<stop offset="0.2974" stop-color="#EEB2AF"/>
<stop offset="0.4087" stop-color="#F4CECC"/>
<stop offset="0.5268" stop-color="#F9E4E3"/>
<stop offset="0.6549" stop-color="#FCF3F3"/>
<stop offset="0.8002" stop-color="#FEFCFC"/>
<stop offset="1" stop-color="white"/>
</linearGradient>
<linearGradient id="paint9_linear_238_309" x1="20.6171" y1="11.1178" x2="12.0935" y2="25.2493" gradientUnits="userSpaceOnUse">
<stop stop-color="#F8302B"/>
<stop offset="0.3468" stop-color="#F62A26"/>
<stop offset="0.8112" stop-color="#F11917"/>
<stop offset="1" stop-color="#EE100F"/>
</linearGradient>
<linearGradient id="paint10_linear_238_309" x1="14.0597" y1="10.5446" x2="14.5276" y2="13.694" gradientUnits="userSpaceOnUse">
<stop stop-color="#D33D36"/>
<stop offset="0.1102" stop-color="#D8534C"/>
<stop offset="0.3407" stop-color="#E58A86"/>
<stop offset="0.6697" stop-color="#F9E3E2"/>
<stop offset="0.768" stop-color="white"/>
<stop offset="1" stop-color="white"/>
</linearGradient>
<linearGradient id="paint11_linear_238_309" x1="18.9509" y1="21.9066" x2="19.3925" y2="24.8798" gradientUnits="userSpaceOnUse">
<stop stop-color="#D33D36"/>
<stop offset="0.1102" stop-color="#D8534C"/>
<stop offset="0.3407" stop-color="#E58A86"/>
<stop offset="0.6697" stop-color="#F9E3E2"/>
<stop offset="0.768" stop-color="white"/>
<stop offset="1" stop-color="white"/>
</linearGradient>
<linearGradient id="paint12_linear_238_309" x1="10.4042" y1="19.8416" x2="10.8571" y2="22.8898" gradientUnits="userSpaceOnUse">
<stop stop-color="#D33D36"/>
<stop offset="0.1102" stop-color="#D8534C"/>
<stop offset="0.3407" stop-color="#E58A86"/>
<stop offset="0.6697" stop-color="#F9E3E2"/>
<stop offset="0.768" stop-color="white"/>
<stop offset="1" stop-color="white"/>
</linearGradient>
<linearGradient id="paint13_linear_238_309" x1="22.6691" y1="12.8275" x2="23.1251" y2="15.8971" gradientUnits="userSpaceOnUse">
<stop stop-color="#D33D36"/>
<stop offset="0.1102" stop-color="#D8534C"/>
<stop offset="0.3407" stop-color="#E58A86"/>
<stop offset="0.6697" stop-color="#F9E3E2"/>
<stop offset="0.768" stop-color="white"/>
<stop offset="1" stop-color="white"/>
</linearGradient>
</defs>
</svg>
