<svg width="29" height="26" viewBox="0 0 29 26" fill="none" xmlns="http://www.w3.org/2000/svg">
<g id="cards">
<g id="Group 38">
<path id="Union" d="M18.7539 21.6307C19.3529 21.4704 19.7088 20.8538 19.5478 20.2549L14.6221 1.88712C14.4611 1.28817 13.8452 0.932895 13.2463 1.09325L1.08531 4.3544C0.486358 4.51536 0.130484 5.13128 0.291437 5.73023L5.21715 24.0986C5.3781 24.6976 5.99403 25.0528 6.59298 24.8925L18.7539 21.6307Z" fill="url(#paint0_linear_238_307)"/>
<path id="Union_2" d="M5.79367 23.9427C5.85553 24.1724 6.06469 24.3332 6.30223 24.3328C6.34759 24.3327 6.39353 24.3267 6.43828 24.3153L18.5992 21.0535C18.7353 21.0169 18.8485 20.9302 18.9187 20.8083C18.989 20.6864 19.0078 20.5449 18.9712 20.4089L14.0449 2.04056C13.9836 1.81028 13.7739 1.65008 13.5363 1.65048C13.4904 1.65056 13.445 1.6566 13.4003 1.66861L1.2393 4.92977C0.958918 5.00484 0.79229 5.29458 0.867362 5.57437L5.79367 23.9427Z" fill="url(#paint1_linear_238_307)"/>
<path id="Vector" d="M16.1238 13.4355C15.3254 10.4727 11.0929 9.99217 9.05869 7.58513L9.02877 7.55208L9.01915 7.59488C8.47138 10.7005 5.05451 13.2426 5.853 16.2038C6.52312 18.681 10.055 18.7542 11.0929 16.2508C11.1 16.1369 11.2676 16.91 11.2772 17.3701C11.2368 18.7449 10.359 20.9688 9.84278 21.7244C10.5554 20.6778 14.3099 19.6649 15.4514 20.2111C14.6266 19.8161 12.8321 18.3838 12.022 17.1679C11.8293 16.8227 11.6737 16.4637 11.5488 16.0974C13.7153 17.9238 16.8053 15.9619 16.1238 13.4355Z" fill="url(#paint2_radial_238_307)"/>
<path id="Vector_2" d="M9.08522 17.3861C4.01185 17.1828 7.11744 10.7912 10.4154 11.0581C9.07792 13.0277 8.32102 15.4503 9.08522 17.3861Z" fill="url(#paint3_linear_238_307)"/>
<path id="Vector_3" d="M3.64024 8.47264C3.62648 8.4476 3.60078 8.43153 3.56738 8.44053L3.07402 8.57326C3.05433 8.57866 3.04541 8.59838 3.04426 8.62165L3.10378 9.23927C3.10743 9.27866 3.12956 9.30727 3.16361 9.32691L3.3434 9.41016C3.37745 9.4298 3.42342 9.44107 3.42763 9.45658C3.43183 9.47268 3.42291 9.49239 3.38951 9.5014L2.62292 9.70859C2.59608 9.7158 2.57875 9.70329 2.57454 9.68719C2.57034 9.67108 2.59118 9.6424 2.60666 9.62089L2.75255 9.42011C2.78411 9.37708 2.77626 9.32159 2.76961 9.27147L2.40162 5.49951C2.40097 5.47086 2.40869 5.44638 2.4415 5.43737L2.68788 5.37071C2.72129 5.3617 2.74818 5.38314 2.76375 5.41355L4.3702 8.84623C4.39117 8.89812 4.42767 8.95177 4.48261 8.97197L4.71373 9.05932C4.73822 9.07002 4.76271 9.08073 4.76691 9.09683C4.77112 9.11294 4.7622 9.13265 4.72879 9.14166L3.76892 9.4011C3.73552 9.41011 3.71819 9.3976 3.71398 9.38149C3.70978 9.36539 3.73182 9.34207 3.7473 9.32056L3.88783 9.12695C3.90867 9.09827 3.91218 9.05708 3.89181 9.01056L3.64024 8.47264ZM3.4571 8.16439C3.47678 8.15898 3.4863 8.13927 3.47373 8.1196L2.88555 6.86664L2.87183 6.87024L3.00842 8.25048C3.00727 8.27376 3.02399 8.2809 3.03712 8.27729L3.4571 8.16439Z" fill="black"/>
</g>
<g id="Group 37">
<path id="Union_3" d="M22.379 24.903C22.9777 25.0645 23.5941 24.7097 23.7556 24.1105L28.7038 5.74909C28.8653 5.15041 28.5106 4.53403 27.9119 4.37253L15.7543 1.09795C15.1556 0.936451 14.5392 1.29063 14.3777 1.88991L9.42944 20.2519C9.26794 20.8512 9.62271 21.4669 10.2214 21.6284L22.379 24.903Z" fill="url(#paint4_linear_238_307)"/>
<path id="Union_4" d="M22.5337 24.3268C22.5791 24.3393 22.6256 24.3453 22.6716 24.3452C22.9079 24.3451 23.1167 24.1851 23.1787 23.9559L28.1264 5.59395C28.1627 5.45846 28.1442 5.31642 28.0743 5.19469C28.0044 5.07297 27.891 4.98588 27.7549 4.94893L15.5979 1.67375C15.5525 1.66123 15.506 1.65528 15.46 1.6553C15.2237 1.6554 15.0149 1.81603 14.9529 2.04464L10.0046 20.4066C9.92892 20.6865 10.0956 20.9759 10.3761 21.0516L22.5337 24.3268Z" fill="url(#paint5_linear_238_307)"/>
<path id="Vector_4" d="M16.2366 6.03248C16.2371 6.00384 16.2228 5.97698 16.1894 5.96805L15.6957 5.83575C15.676 5.83039 15.6582 5.84293 15.6456 5.86263L15.3874 6.42674C15.3707 6.46256 15.3755 6.49837 15.3952 6.53238L15.5093 6.69467C15.5284 6.72868 15.563 6.76149 15.5589 6.77701C15.5547 6.79313 15.5368 6.80567 15.5034 6.79673L14.7364 6.59173C14.7089 6.58518 14.7005 6.56549 14.7047 6.54937C14.7089 6.53326 14.7417 6.51892 14.7656 6.50817L14.9923 6.40781C15.0413 6.3863 15.0621 6.33437 15.0818 6.28781L16.6542 2.83927C16.6679 2.81419 16.687 2.79628 16.7205 2.80522L16.967 2.87137C17.0004 2.88031 17.0129 2.91253 17.0112 2.94595L16.6809 6.72104C16.6731 6.77655 16.6774 6.84101 16.7156 6.88576L16.872 7.07727C16.8875 7.09875 16.9031 7.12023 16.8989 7.13635C16.8947 7.15246 16.8768 7.16501 16.8434 7.15607L15.883 6.89923C15.8496 6.89029 15.8406 6.8706 15.8454 6.85448C15.8495 6.83836 15.8806 6.8294 15.905 6.81865L16.124 6.72187C16.1563 6.70753 16.1801 6.6735 16.1861 6.62337L16.2366 6.03248ZM16.2322 5.67379C16.2519 5.67915 16.2698 5.66661 16.2686 5.64334L16.3874 4.26461L16.3737 4.26103L15.8001 5.52416C15.7875 5.54386 15.7983 5.55818 15.8114 5.56176L16.2322 5.67379Z" fill="#EB3000"/>
<path id="Vector_5" d="M19.3986 11.7741C18.6335 8.59234 14.5001 8.63946 13.7635 11.3945C12.9379 14.4811 16.6323 16.6388 17.2107 19.872L17.2208 19.9182L17.2519 19.8837C19.3664 17.3703 23.6453 17.3459 24.4718 14.2593C25.2075 11.5042 21.6502 9.39861 19.3986 11.7741Z" fill="url(#paint6_linear_238_307)"/>
<path id="Vector_6" d="M16.7145 10.0595C12.0261 10.2959 14.9091 17.361 17.9565 17.0584C16.7165 14.882 16.0121 12.2032 16.7145 10.0595Z" fill="url(#paint7_linear_238_307)"/>
</g>
</g>
<defs>
<linearGradient id="paint0_linear_238_307" x1="8.67931" y1="26.4849" x2="11.2588" y2="2.60728" gradientUnits="userSpaceOnUse">
<stop stop-color="#C1C1C2"/>
<stop offset="0.1" stop-color="#CACACB"/>
<stop offset="0.4249" stop-color="#E0E0E1"/>
<stop offset="0.7319" stop-color="#EEEEEF"/>
<stop offset="1" stop-color="#F3F3F4"/>
</linearGradient>
<linearGradient id="paint1_linear_238_307" x1="14.2644" y1="15.4064" x2="5.44523" y2="11.5372" gradientUnits="userSpaceOnUse">
<stop stop-color="#8B8B8B"/>
<stop offset="0.1813" stop-color="#AAAAAB"/>
<stop offset="0.4042" stop-color="#CACACA"/>
<stop offset="0.6199" stop-color="#E1E1E1"/>
<stop offset="0.8228" stop-color="#EEEEEF"/>
<stop offset="1" stop-color="#F3F3F4"/>
</linearGradient>
<radialGradient id="paint2_radial_238_307" cx="0" cy="0" r="1" gradientUnits="userSpaceOnUse" gradientTransform="translate(6.54315 12.8511) rotate(-0.0958934) scale(6.23405 6.23405)">
<stop stop-color="#6F706D"/>
<stop offset="0.8291" stop-color="#050505"/>
</radialGradient>
<linearGradient id="paint3_linear_238_307" x1="5.87509" y1="20.0766" x2="8.16193" y2="12.8222" gradientUnits="userSpaceOnUse">
<stop stop-color="white"/>
<stop offset="1" stop-color="white" stop-opacity="0"/>
</linearGradient>
<linearGradient id="paint4_linear_238_307" x1="25.1205" y1="3.82166" x2="13.4898" y2="22.0962" gradientUnits="userSpaceOnUse">
<stop stop-color="white"/>
<stop offset="0.4058" stop-color="#FCFCFC"/>
<stop offset="0.7107" stop-color="#F2F2F2"/>
<stop offset="0.9824" stop-color="#E2E2E2"/>
<stop offset="1" stop-color="#E1E1E1"/>
</linearGradient>
<linearGradient id="paint5_linear_238_307" x1="13.9012" y1="9.19489" x2="25.6071" y2="19.432" gradientUnits="userSpaceOnUse">
<stop stop-color="#E1E1E1"/>
<stop offset="0.1158" stop-color="#ECECEC"/>
<stop offset="0.3159" stop-color="#FAFAFA"/>
<stop offset="0.4909" stop-color="white"/>
<stop offset="0.6975" stop-color="#FCFCFC"/>
<stop offset="0.8527" stop-color="#F2F2F2"/>
<stop offset="0.991" stop-color="#E2E2E2"/>
<stop offset="1" stop-color="#E1E1E1"/>
</linearGradient>
<linearGradient id="paint6_linear_238_307" x1="14.5" y1="14" x2="18.9586" y2="20.0021" gradientUnits="userSpaceOnUse">
<stop offset="0.390625" stop-color="#F42522"/>
<stop offset="1" stop-color="#A60605"/>
</linearGradient>
<linearGradient id="paint7_linear_238_307" x1="13.7423" y1="7.08981" x2="16.6749" y2="14.8056" gradientUnits="userSpaceOnUse">
<stop stop-color="white"/>
<stop offset="1" stop-color="white" stop-opacity="0"/>
</linearGradient>
</defs>
</svg>
