<svg width="26" height="24" viewBox="0 0 26 24" fill="none" xmlns="http://www.w3.org/2000/svg">
<g id="cristal" clip-path="url(#clip0_208_666)">
<path id="Vector" fill-rule="evenodd" clip-rule="evenodd" d="M18.0228 3.89344L24.0304 8.51229L25.0152 11.7172L20.3865 11.6229L12.9016 8.32377L6.89403 3.70492L5.90918 0.5H10.538L18.0228 3.89344Z" fill="url(#paint0_radial_208_666)"/>
<path id="Vector_2" fill-rule="evenodd" clip-rule="evenodd" d="M5.90909 0.5L0 2.47951L1.37879 6.90984L6.89394 3.70492L5.90909 0.5Z" fill="url(#paint1_radial_208_666)"/>
<path id="Vector_3" fill-rule="evenodd" clip-rule="evenodd" d="M6.89406 3.70508L1.37891 6.91L9.55315 13.2256L12.9016 8.32393L6.89406 3.70508Z" fill="url(#paint2_radial_208_666)"/>
<path id="Vector_4" fill-rule="evenodd" clip-rule="evenodd" d="M12.9012 8.32324L20.3861 11.6224L19.7952 17.7495L9.55273 13.2249L12.9012 8.32324Z" fill="url(#paint3_radial_208_666)"/>
<path id="Vector_5" fill-rule="evenodd" clip-rule="evenodd" d="M25.0146 11.7173L25.9995 17.7501H19.7949L20.3858 11.623L25.0146 11.7173Z" fill="url(#paint4_radial_208_666)"/>
<path id="Vector_6" fill-rule="evenodd" clip-rule="evenodd" d="M1.37891 6.90918L4.92436 23.4993L9.55315 13.2248L1.37891 6.90918Z" fill="url(#paint5_radial_208_666)"/>
<path id="Vector_7" fill-rule="evenodd" clip-rule="evenodd" d="M9.55262 13.2256L19.795 17.7502L4.92383 23.5002L9.55262 13.2256Z" fill="url(#paint6_radial_208_666)"/>
<path id="Vector_8" fill-rule="evenodd" clip-rule="evenodd" d="M25.9996 17.75L4.92383 23.5L19.795 17.75H25.9996Z" fill="url(#paint7_radial_208_666)"/>
<path id="Vector_9" fill-rule="evenodd" clip-rule="evenodd" d="M0 2.47949L4.92424 23.5L1.37879 6.90982L0 2.47949Z" fill="#85F2FF"/>
<path id="Vector_10" opacity="0.75" fill-rule="evenodd" clip-rule="evenodd" d="M2.26527 10.9625C2.16679 8.04033 3.44709 8.88869 4.82588 10.3026C9.06072 14.4502 7.68194 16.901 5.81072 21.6141C7.09103 18.7862 8.27285 16.0526 9.55315 13.2248C6.79557 11.151 4.13648 8.98295 1.37891 6.90918C1.67436 8.22885 1.96982 9.64279 2.26527 10.9625Z" fill="#9FDFFF"/>
<path id="Vector_11" opacity="0.5" fill-rule="evenodd" clip-rule="evenodd" d="M12.7041 14.6396C16.939 16.5249 15.1663 18.6929 11.6208 20.3896L4.92383 23.5003L19.795 17.656L12.7041 14.6396Z" fill="url(#paint8_radial_208_666)"/>
<path id="Vector_12" fill-rule="evenodd" clip-rule="evenodd" d="M6.89341 3.70436L6.00704 0.782227C6.3025 2.29042 6.49947 2.856 6.10553 3.51583C5.6131 4.17567 4.43129 5.11829 3.54492 5.68387L6.89341 3.70436Z" fill="#8FFCFF"/>
<path id="Vector_13" fill-rule="evenodd" clip-rule="evenodd" d="M12.901 8.32393L6.89341 3.70508L3.54492 5.59032C5.21916 4.74196 6.20401 4.36491 6.89341 4.6477C7.5828 4.83623 8.37068 5.4018 9.65098 6.34442C11.0298 7.38131 11.6207 8.32393 11.6207 8.8895C11.6207 9.54934 10.9313 10.869 10.0449 12.3772L12.901 8.32393Z" fill="white"/>
<path id="Vector_14" opacity="0.5" fill-rule="evenodd" clip-rule="evenodd" d="M12.902 8.32324L10.0459 12.3765C11.3262 10.5855 12.4095 9.73718 13.0989 9.64291C14.0838 9.45439 15.4626 9.73718 18.2201 10.6798L12.902 8.32324Z" fill="#8FFCFF"/>
</g>
<defs>
<radialGradient id="paint0_radial_208_666" cx="0" cy="0" r="1" gradientUnits="userSpaceOnUse" gradientTransform="translate(7.35868 3.97102) scale(23.9621 22.9348)">
<stop stop-color="#C4EEFF"/>
<stop offset="0.329" stop-color="#4CCAFF"/>
<stop offset="1" stop-color="#003EB0"/>
</radialGradient>
<radialGradient id="paint1_radial_208_666" cx="0" cy="0" r="1" gradientUnits="userSpaceOnUse" gradientTransform="translate(-0.656894 -0.543955) scale(9.11064 8.72002)">
<stop stop-color="#A5E2FF"/>
<stop offset="1" stop-color="#218CF3"/>
</radialGradient>
<radialGradient id="paint2_radial_208_666" cx="0" cy="0" r="1" gradientUnits="userSpaceOnUse" gradientTransform="translate(7.01825 4.52912) scale(26.3452 25.2156)">
<stop stop-color="#A5E2FF"/>
<stop offset="1" stop-color="#0088FF"/>
</radialGradient>
<radialGradient id="paint3_radial_208_666" cx="0" cy="0" r="1" gradientUnits="userSpaceOnUse" gradientTransform="translate(11.2762 24.6453) scale(18.31 17.525)">
<stop stop-color="#A5E2FF"/>
<stop offset="1" stop-color="#0069C2"/>
</radialGradient>
<radialGradient id="paint4_radial_208_666" cx="0" cy="0" r="1" gradientUnits="userSpaceOnUse" gradientTransform="translate(27.2126 8.0111) scale(13.3022 12.7319)">
<stop stop-color="#4CCAFF"/>
<stop offset="1" stop-color="#003EB0"/>
</radialGradient>
<radialGradient id="paint5_radial_208_666" cx="0" cy="0" r="1" gradientUnits="userSpaceOnUse" gradientTransform="translate(-0.644366 16.8103) scale(11.6206 11.1224)">
<stop stop-color="#A5E2FF"/>
<stop offset="1" stop-color="#218CF3"/>
</radialGradient>
<radialGradient id="paint6_radial_208_666" cx="0" cy="0" r="1" gradientUnits="userSpaceOnUse" gradientTransform="translate(8.15078 27.225) scale(21.3608 20.4449)">
<stop stop-color="#77D6FF"/>
<stop offset="1" stop-color="#001FB0"/>
</radialGradient>
<radialGradient id="paint7_radial_208_666" cx="0" cy="0" r="1" gradientUnits="userSpaceOnUse" gradientTransform="translate(5.29896 24.2883) scale(19.3798 18.5488)">
<stop stop-color="#A5E2FF"/>
<stop offset="1" stop-color="#0081FF"/>
</radialGradient>
<radialGradient id="paint8_radial_208_666" cx="0" cy="0" r="1" gradientUnits="userSpaceOnUse" gradientTransform="translate(9.41296 13.6302) scale(12.1581 11.6368)">
<stop offset="0.3123" stop-color="#00000D"/>
<stop offset="1" stop-color="#1CB4FF"/>
</radialGradient>
<clipPath id="clip0_208_666">
<rect width="26" height="23" fill="white" transform="translate(0 0.5)"/>
</clipPath>
</defs>
</svg>
