<svg width="30" height="27" viewBox="0 0 30 27" fill="none" xmlns="http://www.w3.org/2000/svg">
<g id="crown" clip-path="url(#clip0_208_618)">
<path id="Vector" fill-rule="evenodd" clip-rule="evenodd" d="M22.6996 4.7002C21.5996 4.7002 20.7996 5.6002 20.7996 6.6002C20.7996 7.4002 21.1996 8.0002 21.8996 8.3002C21.3996 10.0002 20.2996 12.1002 19.1996 13.5002C17.9996 15.0002 16.4996 15.7002 14.8996 15.7002C13.2996 15.7002 11.7996 15.0002 10.5996 13.5002C9.49961 12.1002 8.29961 10.0002 7.89961 8.3002C8.49961 8.0002 8.99961 7.3002 8.99961 6.6002C8.89961 5.5002 7.99961 4.7002 6.99961 4.7002C5.89961 4.7002 5.09961 5.6002 5.09961 6.6002C5.09961 7.5002 5.79961 8.3002 6.59961 8.5002C6.59961 10.7002 5.49961 14.5002 3.59961 15.6002L4.79961 19.9002H14.7996H24.7996L25.9996 15.6002C24.1996 14.5002 23.0996 10.8002 22.9996 8.5002C23.8996 8.3002 24.4996 7.6002 24.4996 6.6002C24.5996 5.5002 23.6996 4.7002 22.6996 4.7002Z" fill="url(#paint0_linear_208_618)"/>
<path id="Vector_2" fill-rule="evenodd" clip-rule="evenodd" d="M0 6.9C0 6.7 0.1 6.6 0.3 6.5C0.8 6.5 1.3 6.6 1.7 6.9C2.1 7.2 2.6 7.7 2.7 8.5L0.7 9L0 6.9Z" fill="url(#paint1_linear_208_618)"/>
<path id="Vector_3" fill-rule="evenodd" clip-rule="evenodd" d="M14.7996 0C13.2996 0 12.0996 1.2 12.0996 2.7V3.1H14.7996H17.4996V2.7C17.4996 1.2 16.2996 0 14.7996 0Z" fill="url(#paint2_linear_208_618)"/>
<path id="Vector_4" fill-rule="evenodd" clip-rule="evenodd" d="M29.6004 6.9C29.6004 6.7 29.5004 6.6 29.3004 6.5C28.8004 6.5 28.3004 6.6 27.9004 6.9C27.5004 7.2 27.0004 7.7 26.9004 8.5L28.9004 9L29.6004 6.9Z" fill="url(#paint3_linear_208_618)"/>
<path id="Vector_5" fill-rule="evenodd" clip-rule="evenodd" d="M26.2004 19.9004V23.1004C26.2004 23.3004 26.2004 23.5004 26.0004 23.7004C25.0004 25.3004 20.4004 26.6004 14.8004 26.6004C9.20039 26.6004 4.60039 25.3004 3.60039 23.7004C3.50039 23.5004 3.40039 23.3004 3.40039 23.1004V19.9004C4.60039 24.2004 25.1004 24.2004 26.2004 19.9004Z" fill="url(#paint4_linear_208_618)"/>
<path id="Vector_6" fill-rule="evenodd" clip-rule="evenodd" d="M14.7996 0.400391C16.2996 0.400391 17.4996 1.60039 17.4996 3.10039C17.4996 4.20039 16.7996 5.10039 15.8996 5.50039C16.5996 8.90039 18.0996 13.2004 21.3996 14.3004C24.1996 15.2004 26.7996 12.8004 27.5996 10.7004C26.9996 10.1004 26.7996 9.30039 26.9996 8.50039C27.2996 7.30039 28.4996 6.60039 29.6996 6.90039C28.2996 11.2004 27.0996 15.8004 26.2996 20.2004C25.9996 22.0004 20.9996 23.5004 14.8996 23.5004C8.79961 23.5004 3.89961 22.0004 3.49961 20.2004C2.69961 15.8004 1.49961 11.2004 0.0996094 6.90039C1.29961 6.60039 2.49961 7.30039 2.79961 8.50039C2.99961 9.30039 2.69961 10.1004 2.19961 10.7004C2.99961 12.8004 5.59961 15.2004 8.39961 14.3004C11.6996 13.3004 13.1996 8.90039 13.8996 5.50039C12.9996 5.10039 12.2996 4.20039 12.2996 3.10039C12.1996 1.60039 13.3996 0.400391 14.7996 0.400391Z" fill="url(#paint5_linear_208_618)"/>
<g id="Vector_7">
<path fill-rule="evenodd" clip-rule="evenodd" d="M14.7996 0.400391C16.2996 0.400391 17.4996 1.60039 17.4996 3.10039C17.4996 4.20039 16.7996 5.10039 15.8996 5.50039C16.5996 8.90039 18.0996 13.2004 21.3996 14.3004C24.1996 15.2004 26.7996 12.8004 27.5996 10.7004C26.9996 10.1004 26.7996 9.30039 26.9996 8.50039C27.2996 7.30039 28.4996 6.60039 29.6996 6.90039C28.2996 11.2004 27.0996 15.8004 26.2996 20.2004C25.9996 22.0004 20.9996 23.5004 14.8996 23.5004C8.79961 23.5004 3.89961 22.0004 3.49961 20.2004C2.69961 15.8004 1.49961 11.2004 0.0996094 6.90039C1.29961 6.60039 2.49961 7.30039 2.79961 8.50039C2.99961 9.30039 2.69961 10.1004 2.19961 10.7004C2.99961 12.8004 5.59961 15.2004 8.39961 14.3004C11.6996 13.3004 13.1996 8.90039 13.8996 5.50039C12.9996 5.10039 12.2996 4.20039 12.2996 3.10039C12.1996 1.60039 13.3996 0.400391 14.7996 0.400391Z" fill="url(#paint6_linear_208_618)" style="mix-blend-mode:overlay"/>
</g>
<path id="Vector_8" fill-rule="evenodd" clip-rule="evenodd" d="M21.3998 14.2996C24.1998 15.1996 26.7998 12.7996 27.5998 10.6996C27.1998 12.3996 25.8998 14.4996 23.6998 15.0996C18.2998 16.4996 16.0998 9.69961 15.7998 5.59961C16.5998 8.89961 18.0998 13.2996 21.3998 14.2996Z" fill="url(#paint7_linear_208_618)"/>
<path id="Vector_9" fill-rule="evenodd" clip-rule="evenodd" d="M8.29961 14.2996C5.49961 15.1996 2.89961 12.7996 2.09961 10.6996C2.49961 12.3996 3.79961 14.4996 5.99961 15.0996C11.3996 16.4996 13.5996 9.69961 13.8996 5.59961C12.9996 8.89961 11.4996 13.2996 8.29961 14.2996Z" fill="url(#paint8_linear_208_618)"/>
<path id="Vector_10" opacity="0.65" fill-rule="evenodd" clip-rule="evenodd" d="M25.2996 21.2998C23.5996 22.5998 19.4996 23.4998 14.6996 23.4998C9.89961 23.4998 5.79961 22.5998 4.09961 21.2998C5.59961 22.6998 9.79961 23.6998 14.6996 23.6998C19.5996 23.6998 23.7996 22.7998 25.2996 21.2998Z" fill="url(#paint9_radial_208_618)"/>
<path id="Vector_11" fill-rule="evenodd" clip-rule="evenodd" d="M11.0996 15.0998L14.7996 13.2998L18.4996 15.0998L17.9996 21.3998L14.7996 22.2998L11.5996 21.3998L11.0996 15.0998Z" fill="#BE8954"/>
<path id="Vector_12" fill-rule="evenodd" clip-rule="evenodd" d="M11.5996 15.3998L14.7996 13.7998L17.9996 15.3998L17.5996 21.0998L14.7996 21.8998L12.0996 21.0998L11.5996 15.3998Z" fill="#E6E6E6"/>
<path id="Vector_13" fill-rule="evenodd" clip-rule="evenodd" d="M12.7002 16L13.1002 20.3L14.8002 20.8L16.6002 20.3L16.9002 16L14.8002 15L12.7002 16Z" fill="url(#paint10_radial_208_618)"/>
<path id="Vector_14" fill-rule="evenodd" clip-rule="evenodd" d="M12.0996 21.1004L13.0996 20.3004L12.6996 16.0004L11.5996 15.4004L12.0996 21.1004Z" fill="#F62A26"/>
<path id="Vector_15" fill-rule="evenodd" clip-rule="evenodd" d="M12.6996 15.9998L14.7996 14.9998V13.7998L11.5996 15.3998L12.6996 15.9998Z" fill="#FFB5A5"/>
<path id="Vector_16" fill-rule="evenodd" clip-rule="evenodd" d="M14.7996 20.7998L13.0996 20.2998L12.0996 21.0998L14.7996 21.8998V20.7998Z" fill="#B40F11"/>
<path id="Vector_17" fill-rule="evenodd" clip-rule="evenodd" d="M17.5996 21.1004L16.5996 20.3004L16.8996 16.0004L17.9996 15.4004L17.5996 21.1004Z" fill="#B40F11"/>
<path id="Vector_18" fill-rule="evenodd" clip-rule="evenodd" d="M16.8998 15.9998L14.7998 14.9998V13.7998L17.9998 15.3998L16.8998 15.9998Z" fill="#FB906C"/>
<path id="Vector_19" fill-rule="evenodd" clip-rule="evenodd" d="M14.7998 20.7998L16.5998 20.2998L17.5998 21.0998L14.7998 21.8998V20.7998Z" fill="#A80706"/>
<path id="Vector_20" opacity="0.65" fill-rule="evenodd" clip-rule="evenodd" d="M13.6996 15.2998C13.0996 15.5998 12.2996 15.7998 11.5996 15.3998L12.6996 15.9998L14.7996 14.9998V13.7998C14.7996 14.3998 14.2996 14.9998 13.6996 15.2998Z" fill="white"/>
<path id="Vector_21" opacity="0.45" fill-rule="evenodd" clip-rule="evenodd" d="M15.5998 20.6998C16.3998 20.3998 17.2998 20.7998 17.5998 21.0998L16.5998 20.2998L14.7998 20.7998V21.3998V21.5998C14.7998 21.1998 14.9998 20.8998 15.5998 20.6998Z" fill="white"/>
<path id="Vector_22" fill-rule="evenodd" clip-rule="evenodd" d="M11.5996 15.3998L14.7996 13.7998V13.2998L11.0996 15.0998L11.5996 15.3998Z" fill="url(#paint11_linear_208_618)"/>
<path id="Vector_23" fill-rule="evenodd" clip-rule="evenodd" d="M12.0996 21.0996L11.5996 15.3996L11.0996 15.0996L11.5996 21.3996L12.0996 21.0996Z" fill="url(#paint12_linear_208_618)"/>
<path id="Vector_24" fill-rule="evenodd" clip-rule="evenodd" d="M14.7996 21.8996L12.0996 21.0996L11.5996 21.3996L14.7996 22.2996V21.8996Z" fill="url(#paint13_linear_208_618)"/>
<path id="Vector_25" fill-rule="evenodd" clip-rule="evenodd" d="M17.9998 15.3998L14.7998 13.7998V13.2998L18.4998 15.0998L17.9998 15.3998Z" fill="url(#paint14_linear_208_618)"/>
<path id="Vector_26" fill-rule="evenodd" clip-rule="evenodd" d="M17.5996 21.0996L17.9996 15.3996L18.4996 15.0996L17.9996 21.3996L17.5996 21.0996Z" fill="url(#paint15_linear_208_618)"/>
<path id="Vector_27" fill-rule="evenodd" clip-rule="evenodd" d="M14.7998 21.8996L17.5998 21.0996L17.9998 21.3996L14.7998 22.2996V21.8996Z" fill="url(#paint16_linear_208_618)"/>
<path id="Vector_28" opacity="0.7" fill-rule="evenodd" clip-rule="evenodd" d="M11.4004 15.0004C12.4004 15.0004 14.0004 14.2004 14.6004 13.4004L11.4004 15.0004Z" fill="#FFFCE3"/>
<path id="Vector_29" fill-rule="evenodd" clip-rule="evenodd" d="M14.7996 0.400391C16.2996 0.400391 17.4996 1.60039 17.4996 3.10039C17.4996 4.60039 16.2996 5.80039 14.7996 5.80039C13.2996 5.80039 12.0996 4.60039 12.0996 3.10039C12.1996 1.60039 13.3996 0.400391 14.7996 0.400391Z" fill="url(#paint17_radial_208_618)"/>
</g>
<defs>
<linearGradient id="paint0_linear_208_618" x1="14.8234" y1="19.8364" x2="14.8234" y2="4.6925" gradientUnits="userSpaceOnUse">
<stop stop-color="#E86900"/>
<stop offset="1" stop-color="#FC8F00"/>
</linearGradient>
<linearGradient id="paint1_linear_208_618" x1="0" y1="7.7639" x2="2.6805" y2="7.7639" gradientUnits="userSpaceOnUse">
<stop stop-color="#ED8E00"/>
<stop offset="1" stop-color="#FFCB30"/>
</linearGradient>
<linearGradient id="paint2_linear_208_618" x1="14.8234" y1="3.0997" x2="14.8234" y2="0" gradientUnits="userSpaceOnUse">
<stop stop-color="#ED8E00"/>
<stop offset="1" stop-color="#FFCB30"/>
</linearGradient>
<linearGradient id="paint3_linear_208_618" x1="26.9674" y1="7.7639" x2="29.648" y2="7.7639" gradientUnits="userSpaceOnUse">
<stop stop-color="#ED8E00"/>
<stop offset="1" stop-color="#FFCB30"/>
</linearGradient>
<linearGradient id="paint4_linear_208_618" x1="3.44179" y1="23.2337" x2="26.2066" y2="23.2337" gradientUnits="userSpaceOnUse">
<stop offset="0.0520446" stop-color="#ED9500"/>
<stop offset="0.4033" stop-color="#FFCC00"/>
<stop offset="0.9257" stop-color="#B36600"/>
</linearGradient>
<linearGradient id="paint5_linear_208_618" x1="-0.000390622" y1="11.9962" x2="29.6472" y2="11.9962" gradientUnits="userSpaceOnUse">
<stop offset="0.0520446" stop-color="#ED9500"/>
<stop offset="0.4033" stop-color="#FFCC00"/>
<stop offset="0.9257" stop-color="#B36600"/>
</linearGradient>
<linearGradient id="paint6_linear_208_618" x1="6" y1="12" x2="19" y2="12" gradientUnits="userSpaceOnUse">
<stop stop-color="white" stop-opacity="0"/>
<stop offset="0.28125" stop-color="white"/>
<stop offset="0.9257" stop-color="white" stop-opacity="0"/>
</linearGradient>
<linearGradient id="paint7_linear_208_618" x1="15.8912" y1="10.3808" x2="27.6022" y2="10.3808" gradientUnits="userSpaceOnUse">
<stop stop-color="#ED8E00"/>
<stop offset="1" stop-color="#FFCB30"/>
</linearGradient>
<linearGradient id="paint8_linear_208_618" x1="2.04481" y1="10.3808" x2="13.7558" y2="10.3808" gradientUnits="userSpaceOnUse">
<stop stop-color="#FFCB30"/>
<stop offset="1" stop-color="#ED8E00"/>
</linearGradient>
<radialGradient id="paint9_radial_208_618" cx="0" cy="0" r="1" gradientUnits="userSpaceOnUse" gradientTransform="translate(14.7413 22.5645) scale(16.9403 16.9403)">
<stop stop-color="#FFF0B0"/>
<stop offset="1"/>
</radialGradient>
<radialGradient id="paint10_radial_208_618" cx="0" cy="0" r="1" gradientUnits="userSpaceOnUse" gradientTransform="translate(13.9556 15.2704) rotate(-2.7921) scale(5.55099)">
<stop stop-color="#F17755"/>
<stop offset="1" stop-color="#EF1312"/>
</radialGradient>
<linearGradient id="paint11_linear_208_618" x1="11.1494" y1="14.3483" x2="14.8234" y2="14.3483" gradientUnits="userSpaceOnUse">
<stop stop-color="#F5D36C"/>
<stop offset="1" stop-color="#FFF5B0"/>
</linearGradient>
<linearGradient id="paint12_linear_208_618" x1="11.6122" y1="21.436" x2="11.6122" y2="15.1338" gradientUnits="userSpaceOnUse">
<stop stop-color="#ED8E00"/>
<stop offset="1" stop-color="#FFCB30"/>
</linearGradient>
<linearGradient id="paint13_linear_208_618" x1="11.6495" y1="21.712" x2="14.8234" y2="21.712" gradientUnits="userSpaceOnUse">
<stop stop-color="#A34900"/>
<stop offset="1" stop-color="#F09C00"/>
</linearGradient>
<linearGradient id="paint14_linear_208_618" x1="14.8234" y1="14.3483" x2="18.4974" y2="14.3483" gradientUnits="userSpaceOnUse">
<stop stop-color="#F09C00"/>
<stop offset="1" stop-color="#A34900"/>
</linearGradient>
<linearGradient id="paint15_linear_208_618" x1="18.0343" y1="21.436" x2="18.0343" y2="15.1338" gradientUnits="userSpaceOnUse">
<stop stop-color="#A34900"/>
<stop offset="1" stop-color="#F09C00"/>
</linearGradient>
<linearGradient id="paint16_linear_208_618" x1="14.8234" y1="21.712" x2="17.9973" y2="21.712" gradientUnits="userSpaceOnUse">
<stop stop-color="#FFBF00"/>
<stop offset="1" stop-color="#DB6A00"/>
</linearGradient>
<radialGradient id="paint17_radial_208_618" cx="0" cy="0" r="1" gradientUnits="userSpaceOnUse" gradientTransform="translate(13.9749 2.37519) scale(3.6187)">
<stop stop-color="#FCCD10"/>
<stop offset="0.2207" stop-color="#EDAB09"/>
<stop offset="0.4492" stop-color="#E08E02"/>
<stop offset="0.5799" stop-color="#DB8300"/>
<stop offset="0.7066" stop-color="#D67D00"/>
<stop offset="0.8778" stop-color="#C86C00"/>
<stop offset="1" stop-color="#BA5B00"/>
</radialGradient>
<clipPath id="clip0_208_618">
<rect width="29.6" height="26.6" fill="white"/>
</clipPath>
</defs>
</svg>
