<svg width="25" height="33" viewBox="0 0 25 33" fill="none" xmlns="http://www.w3.org/2000/svg">
<g id="dealer">
<g id="Group">
<g id="Group_2">
<path id="Vector" d="M19.4283 11.4541C19.4673 10.5968 20.4037 9.97329 20.2476 11.0255C20.0915 12.0776 20.0525 14.3378 18.9991 13.9481C17.9457 13.5195 19.4283 11.4541 19.4283 11.4541Z" fill="#E59354"/>
<path id="Vector_2" d="M5.11712 11.4541C5.07811 10.5968 4.14174 9.97329 4.2978 11.0255C4.45386 12.0776 4.49288 14.3378 5.54629 13.9481C6.63871 13.5195 5.11712 11.4541 5.11712 11.4541Z" fill="#E59354"/>
</g>
<path id="Vector_3" d="M12.2918 26.9253C14.4225 26.9253 16.3289 26.068 17.525 24.743C16.7774 24.4702 16.1793 23.6129 16.1793 22.7946V20.5343C16.1793 19.677 15.5065 18.9756 14.6841 18.9756H9.86211C9.03974 18.9756 8.3669 19.677 8.3669 20.5343V22.7946C8.3669 23.6129 7.76882 24.4702 7.05859 24.743C8.25476 26.068 10.1611 26.9253 12.2918 26.9253Z" fill="#E59354"/>
<path id="Vector_4" d="M12.2455 21.82C16.081 21.82 19.1902 17.685 19.1902 12.5843C19.1902 7.48359 16.081 3.34863 12.2455 3.34863C8.41004 3.34863 5.30078 7.48359 5.30078 12.5843C5.30078 17.685 8.41004 21.82 12.2455 21.82Z" fill="#EAAB7A"/>
<path id="Vector_5" d="M19.1895 12.5838C19.1895 12.5838 18.9164 10.0508 18.4483 8.41408C18.0191 7.98542 16.3414 7.71263 14.4687 7.71263C13.5323 7.71263 11.1914 9.19346 10.2551 9.19346C10.6452 8.72583 10.6842 8.37511 10.6842 8.06336C10.021 8.72583 8.38232 9.93387 7.44596 9.93387C7.83611 9.54418 8.03119 8.06336 7.48497 8.06336C6.43156 9.11552 5.33913 12.5838 5.33913 12.5838C5.33913 12.5838 4.75391 10.1287 4.75391 8.99861C4.75391 7.98542 4.75391 1.16583 12.2448 1.28274C19.7358 1.39964 19.7358 7.90748 19.7358 8.99861C19.7358 10.1287 19.1895 12.5838 19.1895 12.5838Z" fill="url(#paint0_radial_238_306)"/>
<path id="Vector_6" d="M7.75808 8.25849C8.0702 7.71292 8.18725 6.50488 7.68005 6.50488C6.62664 7.55705 5.53421 11.0253 5.53421 11.0253C5.53421 11.0253 4.94898 8.57024 4.94898 7.44014C4.94898 7.32323 4.94898 7.12839 4.94898 6.89457C4.75391 7.8688 4.75391 8.68715 4.75391 8.9989C4.75391 10.129 5.33913 12.5841 5.33913 12.5841C5.33913 12.5841 6.47058 9.07684 7.48497 8.06365C7.60202 8.06365 7.68005 8.14158 7.75808 8.25849Z" fill="#9F4F00"/>
<path id="Vector_7" d="M19.384 11.0245C19.384 11.0245 19.1109 8.49147 18.6427 6.85476C18.2135 6.4261 16.5359 6.15332 14.6631 6.15332C13.7268 6.15332 11.3859 7.63415 10.4495 7.63415C10.8396 7.16652 10.8787 6.81579 10.8787 6.50404C10.2544 7.12755 8.77183 8.21868 7.79645 8.33559C7.9135 8.80322 7.75743 9.62157 7.44531 9.89435C8.38168 9.89435 10.0203 8.68631 10.6836 8.02384C10.6836 8.33559 10.6446 8.68631 10.2544 9.15394C11.2298 9.15394 13.5317 7.67311 14.4681 7.67311C16.3408 7.67311 18.0184 7.9459 18.4476 8.37456C18.9158 10.0502 19.1889 12.5832 19.1889 12.5832C19.1889 12.5832 19.6961 10.323 19.7351 9.15394C19.5791 10.1282 19.384 11.0245 19.384 11.0245Z" fill="#9F4F00"/>
<path id="Vector_8" d="M6.90039 11.8034C7.05645 11.5696 7.21251 11.4137 7.40759 11.2968C7.60266 11.1409 7.79774 11.063 8.03183 10.9851C8.26592 10.9071 8.50002 10.8682 8.73411 10.8682C8.9682 10.8682 9.2413 10.9071 9.4754 11.024V11.063C9.04623 11.063 8.57805 11.1799 8.18789 11.3358C7.71971 11.4527 7.32956 11.6086 6.90039 11.8034Z" fill="#9F4F00"/>
<path id="Vector_9" d="M17.5897 11.8034C17.1995 11.6086 16.7704 11.4527 16.3412 11.2968C15.912 11.1409 15.4829 11.024 15.0537 11.024C15.2878 10.9071 15.5219 10.8682 15.795 10.8682C16.0291 10.8682 16.2632 10.9071 16.4973 10.9851C16.7314 11.063 16.9264 11.1799 17.1215 11.2968C17.2776 11.4137 17.4727 11.5696 17.5897 11.8034Z" fill="#9F4F00"/>
<path id="Vector_10" d="M12.2451 18.8194C13.2985 18.8194 13.8447 18.118 14.6641 17.2217C14.6641 17.2217 13.4156 17.6114 12.2841 17.6114C11.2307 17.6114 9.82617 17.2217 9.82617 17.2217C10.6845 18.1569 11.1917 18.8194 12.2451 18.8194Z" fill="white"/>
<path id="Vector_11" d="M12.2451 18.079C11.6209 18.079 11.1527 17.8062 10.7235 17.4165C10.2163 17.2996 9.82617 17.2217 9.82617 17.2217C10.6845 18.1569 11.1917 18.8194 12.2451 18.8194C13.2985 18.8194 13.8447 18.118 14.6641 17.2217C14.6641 17.2217 14.2739 17.3386 13.7277 17.4555C13.2985 17.8452 12.8694 18.079 12.2451 18.079Z" fill="#CA1412"/>
<path id="Vector_12" d="M18.9556 7.47852C19.1897 7.7513 19.3068 8.02408 19.3458 8.33584C19.4238 8.64759 19.4238 8.95934 19.3458 9.27109C19.1507 8.99831 19.0727 8.68656 18.9946 8.41377C18.9556 8.10202 18.9166 7.82924 18.9556 7.47852Z" fill="white"/>
<path id="Vector_13" d="M17.3164 4.24512C17.7066 4.47893 18.0187 4.86862 18.2528 5.25831C18.4869 5.648 18.6429 6.07666 18.6819 6.58326C18.3698 6.23254 18.1747 5.84285 17.9406 5.45316C17.7066 5.0245 17.4725 4.67378 17.3164 4.24512Z" fill="white"/>
<path id="Vector_14" d="M15.0146 2.45215C15.3658 2.49112 15.6779 2.60802 15.99 2.80287C16.2631 2.99772 16.5362 3.23153 16.6923 3.58225C16.3412 3.46534 16.0681 3.30947 15.795 3.11462C15.5218 2.91978 15.2487 2.7639 15.0146 2.45215Z" fill="white"/>
<path id="Vector_15" d="M9.0058 13.1296C9.0058 13.4413 8.81072 13.6751 8.57663 13.6751C8.34254 13.6751 8.14746 13.4413 8.14746 13.1296C8.14746 12.8178 8.34254 12.584 8.57663 12.584C8.81072 12.584 9.0058 12.8568 9.0058 13.1296Z" fill="black"/>
<path id="Vector_16" d="M16.3417 13.1296C16.3417 13.4413 16.1467 13.6751 15.9126 13.6751C15.6785 13.6751 15.4834 13.4413 15.4834 13.1296C15.4834 12.8178 15.6785 12.584 15.9126 12.584C16.1467 12.584 16.3417 12.8568 16.3417 13.1296Z" fill="black"/>
<path id="Vector_17" d="M17.9805 15.0007C18.0585 15.3904 17.5903 15.78 17.0051 15.897C16.3809 16.0139 15.8346 15.78 15.7956 15.3904C15.7176 15.0007 16.1858 14.611 16.771 14.4941C17.3562 14.3772 17.9025 14.611 17.9805 15.0007Z" fill="#E38378"/>
<path id="Vector_18" d="M6.70481 15.0007C6.62678 15.3904 7.09497 15.78 7.68019 15.897C8.30444 16.0139 8.85065 15.78 8.88967 15.3904C8.9677 15.0007 8.49951 14.611 7.91429 14.4941C7.32906 14.3772 6.78284 14.611 6.70481 15.0007Z" fill="#E38378"/>
</g>
<g id="Group 3042">
<path id="Vector_19" d="M23.7855 22.9511C23.3365 22.6393 21.3363 22.1327 20.275 21.8599C19.2137 21.5482 18.3565 21.3144 18.3157 21.3144C18.3157 21.3144 14.8461 23.4577 12.5194 23.4577C10.1927 23.4577 6.76385 21.2754 6.72304 21.2754C6.68222 21.2754 5.78419 21.5482 4.72289 21.821C3.66159 22.1327 1.66145 22.6003 1.21244 22.9121C0.885884 23.2238 0.518511 26.9649 3.37586 29.5368C4.19224 30.2773 5.21272 30.7839 6.31484 31.0956C7.62106 31.4853 9.90694 31.9529 12.7235 31.9529C14.7236 31.9529 16.3972 31.7191 17.6218 31.4853C19.4586 31.0956 21.1322 30.1603 22.2343 28.7185C24.3569 25.9907 24.112 23.2238 23.7855 22.9511Z" fill="#141413"/>
<path id="Subtract" d="M8.19348 20.2615L5.37695 21.7424L10.0376 31.8104C10.8593 31.8981 11.7611 31.9529 12.725 31.9529C13.4655 31.9529 14.1613 31.9208 14.8061 31.8686L19.2147 21.3137L16.3165 20.1836L12.3162 23.1063L8.19348 20.2615Z" fill="white"/>
<path id="Vector_20" d="M6.11035 21.2354L10.3964 25.7558L12.3149 22.5993L10.5188 25.0933L6.11035 21.2354Z" fill="#A6A1A2"/>
<g id="Subtract_2">
<path d="M16.43 31.688L19.9068 28.6757L19.0496 26.0539L23.2132 22.9308L18.519 21.0029C18.6111 21.206 15.9985 28.353 14.6999 31.8776C15.3253 31.83 15.9039 31.7633 16.43 31.688Z" fill="#3A3B39"/>
<path d="M10.2454 31.8332C8.95094 28.2934 6.3758 21.2052 6.43698 21.0029L1.66113 22.8537L5.94715 26.0539L5.08995 28.6757L8.4285 31.5883C8.97956 31.6842 9.58812 31.7694 10.2454 31.8332Z" fill="#3A3B39"/>
</g>
<path id="Vector_21" d="M12.2342 22.6786C12.1934 22.7565 13.7853 25.4454 13.9894 25.5233C14.1935 25.6013 18.153 21.0029 18.153 21.0029L14.2343 25.913L12.2342 22.6786Z" fill="#A6A1A2"/>
<path id="Union" d="M12.9277 23.9654L15.46 24.8979V21.8193L12.9426 23.1583C12.8282 23.0126 12.583 22.9099 12.3164 22.9099C12.0499 22.9099 11.805 23.0124 11.6905 23.1579L9.17383 21.8193V24.8979L11.7398 24.0008C11.8671 24.1177 12.0835 24.1959 12.3164 24.1959C12.572 24.1959 12.8079 24.1016 12.9277 23.9654Z" fill="#1D1D1D"/>
<path id="Vector_22" d="M18.6816 22.6387C19.3756 22.6776 20.0695 22.7945 20.7226 22.9504C21.3757 23.1063 22.0288 23.3011 22.6819 23.5739C21.988 23.5739 21.2941 23.457 20.641 23.3011C20.3144 23.2232 19.9879 23.1453 19.6613 23.0284C19.2939 22.9115 18.9674 22.7945 18.6816 22.6387Z" fill="white"/>
<path id="Vector_23" d="M18.0441 30.3165C14.4579 30.3165 11.5492 29.7079 9.87566 29.2134C8.48106 28.833 7.20599 28.1863 6.13016 27.2353C4.45663 25.7518 3.65972 23.9258 3.30111 22.3662C2.58388 22.5564 1.98619 22.7846 1.74712 22.9368C1.4682 23.2031 1.06974 26.8549 3.85895 29.3655C4.65586 30.0883 5.65201 30.5828 6.72784 30.8871C8.00291 31.2675 10.2343 31.724 12.9836 31.724C14.9361 31.724 16.5698 31.4958 17.7651 31.2675C18.6816 31.0773 19.5582 30.735 20.3153 30.2785C19.598 30.3165 18.841 30.3165 18.0441 30.3165Z" fill="url(#paint1_linear_238_306)"/>
</g>
</g>
<defs>
<radialGradient id="paint0_radial_238_306" cx="0" cy="0" r="1" gradientUnits="userSpaceOnUse" gradientTransform="translate(-3.26791 3.34406) rotate(-18.9517) scale(24.0462 16.9724)">
<stop stop-color="#ED8409"/>
<stop offset="1" stop-color="#D16603"/>
</radialGradient>
<linearGradient id="paint1_linear_238_306" x1="18.4215" y1="17.4862" x2="17.7472" y2="28.8668" gradientUnits="userSpaceOnUse">
<stop stop-color="white"/>
<stop offset="1" stop-color="white" stop-opacity="0"/>
</linearGradient>
</defs>
</svg>
