<svg width="27" height="28" viewBox="0 0 27 28" fill="none" xmlns="http://www.w3.org/2000/svg">
<g id="lottery">
<path id="Vector" d="M1.58071 20.3755C1.94058 21.0442 2.35186 21.6615 2.76315 22.2274C4.35687 24.2851 6.56753 25.9313 9.18946 26.8058C11.9656 27.7317 14.9989 27.7317 17.775 26.8058C18.4948 26.5486 19.1631 26.2914 19.8314 25.9313C20.397 25.6226 20.9625 25.2625 21.528 24.851C23.3274 23.5135 24.8183 21.713 25.7951 19.5524C27.0803 16.723 27.3374 13.5336 26.5662 10.5499C26.3092 9.52108 25.8979 8.54367 25.4352 7.61771C25.0753 6.94895 24.664 6.33164 24.2527 5.76578C22.4534 3.45086 19.9857 1.75326 17.1581 0.981618C14.4847 0.261423 11.7086 0.364307 9.24087 1.18739C8.52113 1.4446 7.85279 1.70181 7.18445 2.06191C6.25906 2.57634 5.38508 3.14221 4.61393 3.8624C2.24904 5.97155 0.706726 8.74944 0.192621 11.7846C-0.218663 14.0995 0.0383898 16.4144 0.809548 18.575C1.01519 19.1923 1.27224 19.8096 1.58071 20.3755Z" fill="url(#paint0_radial_237_344)"/>
<path id="Intersect" fill-rule="evenodd" clip-rule="evenodd" d="M10.8195 0.767704C11.8913 1.94807 13.4076 3.01589 15.2562 3.70956C17.4669 4.53264 19.8832 4.73841 21.7854 4.27543C22.0816 4.20356 22.3654 4.11599 22.635 4.01329C21.0784 2.59255 19.2133 1.54248 17.1581 0.981617C15.0416 0.411446 12.8607 0.35716 10.8195 0.767704ZM0.209375 16.3351C-0.059043 14.8481 -0.0795231 13.3163 0.19262 11.7846C0.59594 9.40349 1.63208 7.18072 3.20173 5.31496C3.24859 5.46197 3.29095 5.61291 3.32855 5.76759C3.48278 6.28202 3.53419 6.84789 3.5856 7.41375C3.68842 8.95703 3.43137 10.6032 2.86585 12.1465C2.22503 13.8564 1.30021 15.2821 0.209375 16.3351ZM15.4375 27.3596C13.3503 27.6617 11.2023 27.4771 9.18946 26.8058C7.50526 26.244 5.99076 25.3639 4.70047 24.2608C4.74012 24.2515 4.78007 24.2428 4.82033 24.2348C6.51687 23.8232 8.5733 23.8747 10.6297 24.5434C12.5074 25.1413 14.208 26.129 15.4375 27.3596ZM26.8313 11.8238C27.2444 14.4266 26.8989 17.1223 25.7951 19.5524C25.1897 20.8915 24.3868 22.0922 23.4354 23.1302C23.3962 23.0038 23.3601 22.875 23.3274 22.7439C22.9161 21.0463 22.9675 18.9886 23.6359 16.8794C24.15 15.3362 24.9725 13.8443 25.9493 12.7126C26.2213 12.4015 26.5227 12.0905 26.8313 11.8238Z" fill="url(#paint1_radial_237_344)"/>
<path id="Intersect_2" fill-rule="evenodd" clip-rule="evenodd" d="M26.9589 15.0201C26.8381 16.5747 26.4501 18.1108 25.7948 19.5533C25.5516 20.0912 25.2765 20.6069 24.9728 21.0986C24.9113 20.7535 24.9408 20.3696 25.0762 19.9634L26.3099 16.054C26.456 15.6154 26.68 15.2676 26.9589 15.0201ZM20.5848 2.46917C20.1064 2.74758 19.4866 2.80343 18.8037 2.57569L14.8968 1.34114C14.3505 1.15894 13.9453 0.865816 13.6946 0.501953C14.8463 0.516209 16.0116 0.67369 17.1579 0.982506C18.3751 1.31468 19.5256 1.81844 20.5848 2.46917ZM12.4432 27.4616C11.3402 27.3775 10.2461 27.1592 9.18924 26.8067C8.92039 26.717 8.65587 26.6192 8.39589 26.5137C8.84192 26.217 9.46128 26.1329 10.115 26.3411L11.3488 26.7526C11.8209 26.9101 12.1876 27.1579 12.4432 27.4616ZM7.29504 26.0075C6.96495 25.8373 6.64359 25.6541 6.33151 25.459C6.67049 25.398 7.04757 25.4151 7.4418 25.518L7.29504 26.0075ZM0.0166016 13.307C0.0441332 12.8009 0.10219 12.2932 0.1924 11.7854C0.350968 10.8493 0.607352 9.93764 0.955517 9.06252C1.32644 9.51377 1.4503 10.1909 1.22181 10.9094L0.810549 12.144C0.638655 12.66 0.358991 13.0502 0.0166016 13.307ZM1.41024 8.04424C1.60452 7.65335 1.81795 7.27131 2.04995 6.89932C2.16764 7.29281 2.17045 7.7508 2.04433 8.23459L1.41024 8.04424Z" fill="#232323"/>
<path id="Vector_2" d="M7.33826 17.1347C8.05797 18.575 9.29175 19.8095 10.9368 20.4268C12.6846 21.147 14.6895 21.0441 16.386 20.2211C17.8768 19.5009 19.1106 18.2149 19.7274 16.5689C20.1901 15.3343 20.2929 13.9455 19.9845 12.6595C19.8817 12.1451 19.676 11.6821 19.4704 11.2192C18.6479 9.52167 17.1057 8.23568 15.3064 7.72129C13.6614 7.20689 11.9135 7.41265 10.4741 8.1328C10.0114 8.33856 9.60019 8.6472 9.18893 8.95583C8.16078 9.77886 7.38967 10.962 6.97841 12.1965C6.41293 13.894 6.56715 15.643 7.33826 17.1347Z" fill="url(#paint2_radial_237_344)"/>
<path id="Vector_3" d="M15.2051 15.3844L14.7939 16.6189C14.3826 17.8535 13.3031 18.3679 12.1721 18.0078C11.0411 17.6477 10.4757 16.6189 10.8869 15.3844L12.1207 11.475C12.532 10.2404 13.5601 9.72605 14.6911 10.1376C15.7706 10.4976 16.2847 11.475 15.9763 12.7095L14.8967 12.3495C15.0509 11.7322 14.8453 11.3207 14.3312 11.1664C13.8171 11.012 13.3545 11.2178 13.1488 11.8351L12.789 13.0182C13.0974 12.8639 13.5087 12.8124 13.9714 12.9667C15.0509 13.2239 15.565 14.2527 15.2051 15.3844ZM14.1256 15.0757C14.3312 14.4585 14.0742 13.9955 13.5601 13.7898C13.046 13.6354 12.5834 13.8926 12.3777 14.5099L12.0179 15.693C11.8123 16.3617 12.0693 16.8247 12.5834 16.979C13.0974 17.1333 13.5601 16.9276 13.7657 16.2589L14.1256 15.0757Z" fill="#232323"/>
<path id="Vector_4" opacity="0.7" d="M19.8393 25.9104C19.9238 25.8693 20.0078 25.824 20.0899 25.7756C22.4518 24.4573 24.4191 22.4307 25.6472 19.8856C25.6521 19.8751 25.6583 19.8653 25.6607 19.8549C25.9763 19.2016 26.2405 18.5134 26.4525 17.7933C27.1677 15.3505 27.161 12.8673 26.5561 10.5747C26.5512 10.5526 26.5469 10.5348 26.5402 10.5128C26.0811 8.80477 25.2924 7.20403 24.2217 5.8043C24.1366 5.6897 24.0477 5.57755 23.9576 5.46724C22.2943 3.42341 20.0176 1.84596 17.2947 1.04682C16.3338 0.765521 15.3655 0.596377 14.4045 0.533254C14.2482 0.520385 14.0889 0.510579 13.932 0.507515C11.526 0.42662 9.18242 1.00147 7.12692 2.10397C7.06808 2.13277 7.01538 2.16402 6.96083 2.19589C4.73926 3.42403 2.86332 5.27419 1.62046 7.59318C1.5267 7.76233 1.43906 7.9376 1.35387 8.11042C1.03274 8.77413 0.762474 9.47461 0.547363 10.2051C0.149624 11.5693 -0.0262642 12.9482 0.00315285 14.2989C0.0086689 14.4656 0.0154095 14.6329 0.0246029 14.8002C0.226231 18.1843 1.70504 21.365 4.1117 23.698C4.20485 23.7887 4.29923 23.8782 4.39667 23.9683C5.58008 25.0512 6.97616 25.9367 8.53892 26.5514C8.73626 26.6299 8.93176 26.7028 9.13706 26.7708L9.1389 26.7714C9.32521 26.8352 9.51335 26.8946 9.7064 26.9528C13.2284 27.9842 16.8381 27.5136 19.8393 25.9104Z" fill="url(#paint3_radial_237_344)"/>
<path id="Union" d="M17.3952 2.72297C3.80119 -3.66973 -3.98255 18.1702 5.18702 21.9552C6.60399 14.7038 10.6387 7.00151 17.3952 2.72297Z" fill="url(#paint4_linear_237_344)"/>
</g>
<defs>
<radialGradient id="paint0_radial_237_344" cx="0" cy="0" r="1" gradientUnits="userSpaceOnUse" gradientTransform="translate(9.71382 6.47882) rotate(79.7925) scale(21.3595 21.3633)">
<stop stop-color="#FEFEFF"/>
<stop offset="0.362216" stop-color="#72D433"/>
<stop offset="0.82633" stop-color="#458B17"/>
</radialGradient>
<radialGradient id="paint1_radial_237_344" cx="0" cy="0" r="1" gradientUnits="userSpaceOnUse" gradientTransform="translate(13.499 14.0001) rotate(90) scale(13.5001 13.501)">
<stop stop-color="white"/>
<stop offset="1" stop-color="#D3D3D3"/>
</radialGradient>
<radialGradient id="paint2_radial_237_344" cx="0" cy="0" r="1" gradientUnits="userSpaceOnUse" gradientTransform="translate(11.9886 11.0378) rotate(81.864) scale(9.97101 10.0082)">
<stop stop-color="white"/>
<stop offset="1" stop-color="#D3D3D3"/>
</radialGradient>
<radialGradient id="paint3_radial_237_344" cx="0" cy="0" r="1" gradientUnits="userSpaceOnUse" gradientTransform="translate(9 10.5) rotate(-158.874) scale(20.4862 20.4859)">
<stop offset="0.4302" stop-color="#657765" stop-opacity="0"/>
<stop offset="0.821826" stop-color="#272527" stop-opacity="0.7"/>
<stop offset="1" stop-color="#151D18" stop-opacity="0.7"/>
</radialGradient>
<linearGradient id="paint4_linear_237_344" x1="2.89677" y1="6.05562" x2="11.3113" y2="12.3354" gradientUnits="userSpaceOnUse">
<stop stop-color="white"/>
<stop offset="0.897752" stop-color="white" stop-opacity="0"/>
</linearGradient>
</defs>
</svg>
