<svg width="26" height="28" viewBox="0 0 26 28" fill="none" xmlns="http://www.w3.org/2000/svg">
<g id="poker">
<path id="Union" d="M25.4988 13.958C25.3761 7.02445 21.0689 1.3897 15.6094 0.761728C14.6717 0.684907 13.8016 0.624165 12.8864 0.575928C12.3509 0.547343 11.8008 0.522332 11.2139 0.5L11.2743 14.0518L11.2734 27.5C12.9694 27.5 14.3327 27.4134 15.8006 27.2651C21.2772 26.4817 25.5592 20.7862 25.4988 13.958Z" fill="url(#paint0_linear_237_328)"/>
<g id="Intersect">
<path d="M25.0676 10.459C25.3287 11.5721 25.4781 12.7447 25.4995 13.957C25.5101 15.1548 25.3871 16.3177 25.1474 17.4254H21.9292V10.459H25.0676Z" fill="#838383"/>
<path d="M24.3132 20.0723C23.3497 22.3553 21.8534 24.2625 20.0259 25.5519H17.1973V20.0723H24.3132Z" fill="#838383"/>
<path d="M19.8491 2.37793C21.7062 3.64955 23.2345 5.5743 24.2317 7.90484H17.1973V2.37793H19.8491Z" fill="#838383"/>
</g>
<path id="Union_2" d="M22.8214 13.4803C22.848 6.3299 18.2283 0.508933 12.529 0.50001C6.82964 0.491088 2.3127 6.36291 2.28613 13.5133C2.31979 20.769 6.99969 26.6935 12.6388 26.5989C18.2779 26.5034 22.855 20.736 22.8214 13.4803Z" fill="white"/>
<path id="Union_3" d="M22.8175 13.9397C22.6594 6.46725 17.7183 0.491968 11.6307 0.500008C5.54397 0.508048 0.346271 6.58695 0.503476 14.0603C0.661584 21.5327 5.6036 27.5089 11.6903 27.5C17.8828 27.4312 22.9757 21.413 22.8175 13.9397Z" fill="url(#paint1_linear_237_328)"/>
<g id="Union_4">
<path d="M5.90999 22.9773C6.6148 23.6992 6.64029 24.8374 5.99355 25.5894C5.73596 25.4014 5.48504 25.2011 5.24131 24.989C5.00129 24.7802 4.76824 24.5599 4.54269 24.3289C3.81169 23.5802 3.15936 22.7185 2.60314 21.7653C2.44263 21.4902 2.29013 21.2075 2.14605 20.9177C2.00405 20.6321 1.87023 20.3396 1.74499 20.0407C2.63979 19.5888 3.74183 19.9075 4.25605 20.7888C4.73666 21.6125 5.29444 22.3469 5.90999 22.9773Z" fill="url(#paint2_linear_237_328)"/>
<path d="M19.2121 20.7553C19.7243 19.8753 20.8223 19.5549 21.7165 20.0014C21.5938 20.3012 21.4618 20.5946 21.3209 20.8811C21.1782 21.1712 21.0265 21.4544 20.8661 21.7299C20.3091 22.6869 19.6482 23.5525 18.9034 24.305C18.6767 24.5341 18.4421 24.7527 18.2004 24.9603C17.9556 25.1704 17.7034 25.3692 17.4445 25.5559C16.8024 24.7995 16.8355 23.6613 17.5453 22.9441C18.1717 22.3111 18.7343 21.5762 19.2121 20.7553Z" fill="url(#paint3_linear_237_328)"/>
<path d="M20.8038 12.5514C20.6856 11.5308 21.3823 10.6036 22.3756 10.4287C22.4489 10.7394 22.5136 11.0546 22.5693 11.374C22.6242 11.6882 22.6704 12.0064 22.7077 12.3282C22.7688 12.8562 22.8059 13.394 22.8174 13.9397C22.8291 14.4904 22.8122 15.0332 22.7685 15.5662C22.742 15.8893 22.7057 16.2088 22.6598 16.5243C22.6132 16.8453 22.5567 17.1622 22.4909 17.4745C21.4971 17.3291 20.7746 16.4285 20.8583 15.4077C20.8965 14.941 20.9114 14.4649 20.9011 13.9807C20.8909 13.4959 20.858 13.0189 20.8038 12.5514Z" fill="url(#paint4_linear_237_328)"/>
<path d="M17.4109 5.02277C16.7061 4.30094 16.6805 3.16276 17.3273 2.41074C17.5849 2.59866 17.8358 2.79898 18.0795 3.01105C18.3196 3.2199 18.5526 3.44014 18.7782 3.67114C19.5092 4.4198 20.1615 5.28149 20.7178 6.23473C20.8783 6.5098 21.0308 6.7925 21.1749 7.0823C21.3169 7.3679 21.4507 7.66041 21.5759 7.95932C20.6811 8.4112 19.5791 8.09245 19.0649 7.21119C18.5843 6.38757 18.0265 5.65318 17.4109 5.02277Z" fill="url(#paint5_linear_237_328)"/>
<path d="M10.3586 2.54313C9.38071 2.71844 8.44403 2.11419 8.17877 1.17272C8.4772 1.054 8.78071 0.950104 9.08861 0.861743C9.39572 0.773612 9.70719 0.700936 10.0224 0.644435C10.5492 0.549984 11.0863 0.500727 11.6306 0.500008C12.1731 0.499292 12.7065 0.546093 13.2282 0.637237C13.5442 0.692441 13.8559 0.763912 14.1628 0.850944C14.4714 0.938479 14.7751 1.04176 15.0733 1.16006C14.8112 2.10115 13.878 2.7082 12.9003 2.5374C12.4869 2.46518 12.0641 2.42803 11.6331 2.4286C11.2024 2.42917 10.777 2.46812 10.3586 2.54313Z" fill="url(#paint6_linear_237_328)"/>
<path d="M4.12327 7.25374C3.61005 8.13361 2.51091 8.45295 1.61686 8.00457C1.74022 7.70516 1.87285 7.41205 2.01424 7.12574C2.15741 6.83586 2.30956 6.55296 2.4702 6.27756C3.02819 5.32094 3.68857 4.45485 4.43016 3.70148C4.65646 3.47158 4.89033 3.25217 5.13115 3.0439C5.37537 2.83269 5.62674 2.63292 5.88465 2.44526C6.52985 3.19989 6.50024 4.33913 5.79199 5.05864C5.16654 5.69402 4.60301 6.43126 4.12327 7.25374Z" fill="url(#paint7_linear_237_328)"/>
<path d="M14.2322 27.1287C14.5406 27.0406 14.8443 26.9374 15.1426 26.8199C14.8776 25.8758 13.9379 25.2707 12.9584 25.4483C12.54 25.5242 12.1127 25.5661 11.6783 25.5714C11.2506 25.5715 10.8308 25.5344 10.4204 25.4627C9.44268 25.292 8.50959 25.8991 8.24744 26.8401C8.54566 26.9584 8.84938 27.0617 9.158 27.1493C9.46486 27.2363 9.77658 27.3077 10.0926 27.3629C10.6143 27.454 11.1477 27.5008 11.6902 27.5C12.2358 27.4939 12.7728 27.4417 13.2985 27.3463C13.614 27.2891 13.9255 27.2163 14.2322 27.1287Z" fill="url(#paint8_linear_237_328)"/>
<path d="M2.51818 15.4003C2.63639 16.421 1.93971 17.3482 0.946358 17.5231C0.873101 17.2124 0.808424 16.8972 0.752667 16.5778C0.697815 16.2636 0.651592 15.9454 0.61432 15.6236C0.553166 15.0955 0.516108 14.5578 0.504561 14.0121C0.492912 13.4614 0.509771 12.9186 0.553481 12.3855C0.579969 12.0625 0.616322 11.743 0.662163 11.4275C0.708796 11.1065 0.765252 10.7896 0.83114 10.4772C1.82494 10.6226 2.54744 11.5233 2.46373 12.5441C2.42547 13.0108 2.41063 13.4869 2.42087 13.971C2.43113 14.4559 2.46404 14.9329 2.51818 15.4003Z" fill="url(#paint9_linear_237_328)"/>
</g>
<path id="Union_5" d="M4.96283 13.8957C4.95568 9.50321 7.83815 5.91575 11.3286 5.88882C14.819 5.86189 17.6481 9.52204 17.6553 13.9145C17.6624 18.307 14.7799 21.8945 11.2895 21.9214C7.79911 21.9483 4.92273 18.368 4.96283 13.8957Z" fill="#A3A2A5"/>
<path id="Union_6" d="M6.10184 13.9496C6.09533 9.90202 8.71913 6.59624 11.8963 6.57143C15.0735 6.54661 17.6488 9.91938 17.6553 13.967C17.6618 18.0146 15.038 21.3204 11.8608 21.3452C8.68359 21.37 6.06534 18.0708 6.10184 13.9496Z" fill="url(#paint10_linear_237_328)"/>
<path id="Vector" fill-rule="evenodd" clip-rule="evenodd" d="M11.6976 6.96869C6.37562 7.50176 5.57601 15.2657 8.27356 18.5286C10.1174 16.2719 12.9078 12.0835 11.6976 6.96869Z" fill="url(#paint11_radial_237_328)"/>
<path id="Union_7" d="M14.6831 2.08381C3.34745 -4.64936 -3.14322 18.3538 4.50306 22.3404C5.68463 14.7027 9.04907 6.59024 14.6831 2.08381Z" fill="url(#paint12_linear_237_328)"/>
</g>
<defs>
<linearGradient id="paint0_linear_237_328" x1="18.3864" y1="27.4439" x2="18.2693" y2="0.492384" gradientUnits="userSpaceOnUse">
<stop stop-color="#773600"/>
<stop offset="0.538978" stop-color="#8F4600"/>
<stop offset="1" stop-color="#7E3A00"/>
</linearGradient>
<linearGradient id="paint1_linear_237_328" x1="24.0926" y1="19.9768" x2="1.2896" y2="4.4992" gradientUnits="userSpaceOnUse">
<stop offset="0.157449" stop-color="#C45800"/>
<stop offset="0.6877" stop-color="#FC940D"/>
</linearGradient>
<linearGradient id="paint2_linear_237_328" x1="11.661" y1="0.5" x2="11.661" y2="27.5" gradientUnits="userSpaceOnUse">
<stop stop-color="white"/>
<stop offset="0.739583" stop-color="#C8C8C8"/>
</linearGradient>
<linearGradient id="paint3_linear_237_328" x1="11.661" y1="0.5" x2="11.661" y2="27.5" gradientUnits="userSpaceOnUse">
<stop stop-color="white"/>
<stop offset="0.739583" stop-color="#C8C8C8"/>
</linearGradient>
<linearGradient id="paint4_linear_237_328" x1="11.661" y1="0.5" x2="11.661" y2="27.5" gradientUnits="userSpaceOnUse">
<stop stop-color="white"/>
<stop offset="0.739583" stop-color="#C8C8C8"/>
</linearGradient>
<linearGradient id="paint5_linear_237_328" x1="11.661" y1="0.5" x2="11.661" y2="27.5" gradientUnits="userSpaceOnUse">
<stop stop-color="white"/>
<stop offset="0.739583" stop-color="#C8C8C8"/>
</linearGradient>
<linearGradient id="paint6_linear_237_328" x1="11.661" y1="0.5" x2="11.661" y2="27.5" gradientUnits="userSpaceOnUse">
<stop stop-color="white"/>
<stop offset="0.739583" stop-color="#C8C8C8"/>
</linearGradient>
<linearGradient id="paint7_linear_237_328" x1="11.661" y1="0.5" x2="11.661" y2="27.5" gradientUnits="userSpaceOnUse">
<stop stop-color="white"/>
<stop offset="0.739583" stop-color="#C8C8C8"/>
</linearGradient>
<linearGradient id="paint8_linear_237_328" x1="11.661" y1="0.5" x2="11.661" y2="27.5" gradientUnits="userSpaceOnUse">
<stop stop-color="white"/>
<stop offset="0.739583" stop-color="#C8C8C8"/>
</linearGradient>
<linearGradient id="paint9_linear_237_328" x1="11.661" y1="0.5" x2="11.661" y2="27.5" gradientUnits="userSpaceOnUse">
<stop stop-color="white"/>
<stop offset="0.739583" stop-color="#C8C8C8"/>
</linearGradient>
<linearGradient id="paint10_linear_237_328" x1="6.77193" y1="9.43827" x2="20.0652" y2="25.2895" gradientUnits="userSpaceOnUse">
<stop stop-color="white"/>
<stop offset="0.846504" stop-color="#A5A5A5"/>
</linearGradient>
<radialGradient id="paint11_radial_237_328" cx="0" cy="0" r="1" gradientUnits="userSpaceOnUse" gradientTransform="translate(2.03768 8.60062) rotate(20.5799) scale(13.4634 13.5829)">
<stop stop-color="white"/>
<stop offset="0.9375" stop-color="white" stop-opacity="0"/>
</radialGradient>
<linearGradient id="paint12_linear_237_328" x1="2.59327" y1="5.59397" x2="10.691" y2="10.3785" gradientUnits="userSpaceOnUse">
<stop stop-color="white"/>
<stop offset="0.897752" stop-color="white" stop-opacity="0"/>
</linearGradient>
</defs>
</svg>
