<svg width="25" height="28" viewBox="0 0 25 28" fill="none" xmlns="http://www.w3.org/2000/svg">
<g id="roulette">
<path id="Union" d="M25.0018 13.7642C24.8792 6.83089 20.5719 1.19631 15.1124 0.568361C14.1747 0.491542 13.3046 0.430801 12.3894 0.382566C11.8538 0.353983 11.3038 0.328972 10.7168 0.306641L10.7772 13.858L10.7763 27.3058C12.4723 27.3058 13.8356 27.2192 15.3035 27.0709C20.7802 26.2875 25.0622 20.5922 25.0018 13.7642Z" fill="url(#paint0_linear_237_325)"/>
<path id="Union_2" d="M22.3186 13.2865C22.3452 6.13636 17.7254 0.315573 12.0261 0.306651C6.32674 0.297729 1.80977 6.16937 1.7832 13.3196C1.81686 20.575 6.49679 26.4993 12.1359 26.4047C17.775 26.3093 22.3522 20.542 22.3186 13.2865Z" fill="#FCCE3A"/>
<path id="Union_3" d="M22.3177 13.7459C22.1596 6.27371 17.2184 0.298609 11.1308 0.306649C5.044 0.314688 -0.15373 6.39341 0.0034756 13.8665C0.161585 21.3387 5.10363 27.3147 11.1904 27.3058C17.3829 27.237 22.4758 21.219 22.3177 13.7459Z" fill="url(#paint1_radial_237_325)"/>
<path id="Union_4" d="M20.7638 13.8295C20.7747 6.95659 16.2466 1.34288 10.7635 1.30101C5.28152 1.25914 0.83718 6.9859 0.825215 13.8589C0.814338 20.7318 5.34243 26.3455 10.8255 26.3874C16.3086 26.4293 20.8269 20.8271 20.7638 13.8295Z" fill="url(#paint2_radial_237_325)"/>
<path id="Union_5" opacity="0.5" d="M13.8286 2.72736C8.54786 2.73783 4.41134 8.12126 4.37871 14.6708C4.30366 20.5755 7.65486 25.356 11.9393 26.252C11.774 26.3462 11.4923 26.3661 11.2258 26.3745C11.0811 26.3787 10.9408 26.3797 10.8255 26.387C5.41637 26.4697 0.888282 20.8571 0.825195 13.8585C0.83716 6.98553 5.2815 1.25877 10.8908 1.22737C12.7366 1.17608 14.4965 1.84286 16.0236 2.97753L13.8286 2.72736Z" fill="url(#paint3_radial_237_325)"/>
<path id="Union_6" d="M11.2943 1.33264C6.33113 2.16481 2.65035 7.45508 2.67102 13.8078C2.69169 20.1595 6.41379 25.5649 11.2073 26.1689C11.3171 26.1971 11.4042 26.1887 11.4944 26.1835C11.5695 26.1783 11.6456 26.1762 11.737 26.2003C11.6478 26.2515 11.5216 26.2411 11.4107 26.2557C11.3639 26.262 11.3193 26.2725 11.2812 26.2945C11.154 26.3667 11.0267 26.44 10.8255 26.3876C5.41637 26.4703 0.888282 20.8576 0.825195 13.8591C0.83716 6.98613 5.2815 1.25937 10.7635 1.30124C10.8277 1.2646 10.9103 1.25937 10.9919 1.25413C11.0735 1.2489 11.1562 1.24367 11.2203 1.20703C11.2943 1.33264 11.4216 1.25937 11.75 1.23843C11.687 1.27507 11.6043 1.2803 11.5216 1.28554C11.4401 1.29077 11.3585 1.296 11.2943 1.33264Z" fill="url(#paint4_linear_237_325)"/>
<path id="Union_7" d="M18.6842 13.8322C18.6922 8.20278 15.3716 3.60479 11.3506 3.5705C7.33048 3.53621 4.07129 8.22678 4.06251 13.8562C4.05454 19.4855 7.37515 24.0835 11.3961 24.1178C15.417 24.1521 18.7305 19.5636 18.6842 13.8322Z" fill="white"/>
<g id="Group">
<g id="Group_2">
<path id="Union_8" d="M18.1895 13.8452C18.1895 13.8452 18.1614 12.7493 18.0912 12.2217L11.3281 13.8452L11.3428 13.8457L18.1059 15.4692C18.1362 15.184 18.2048 13.2725 18.1895 13.8452Z" fill="#C71513"/>
<path id="Union_9" d="M17.8253 10.618C17.8253 10.618 17.5446 9.60327 17.3763 9.11621L11.3428 13.8245V13.8452L18.1059 12.2216C18.0498 11.6737 17.8253 10.6387 17.8253 10.6387V10.618Z" fill="#1E1A1B"/>
<path id="Union_10" fill-rule="evenodd" clip-rule="evenodd" d="M15.9871 6.53913C15.7065 6.17383 15.4119 5.82883 15.0891 5.52441L11.3614 13.8037L11.3428 13.8246L11.357 13.8135L11.3428 13.8451L11.4027 13.7778L17.3763 9.11634C17.1938 8.62928 16.9834 8.1828 16.7589 7.73633L16.7518 7.74429C16.5153 7.32273 16.265 6.92125 15.9871 6.55957L15.9871 6.53913Z" fill="#C71513"/>
<path id="Union_11" d="M11.9034 3.96191C12.2963 4.0025 12.6611 4.08368 13.0259 4.22574L13.0406 4.22559C13.4054 4.34735 13.7702 4.53 14.1069 4.75324L14.1045 4.76129C14.4511 4.98296 14.7839 5.24432 15.0891 5.54538L11.3428 13.8458L11.3281 13.8452L11.9034 3.96191Z" fill="#1E1A1B"/>
<path id="Union_12" fill-rule="evenodd" clip-rule="evenodd" d="M11.8813 3.95767L11.9181 3.96149L11.3429 13.8448L11.3413 13.8184L11.3406 13.8161L11.3429 13.8448L11.3324 13.7892L8.5791 4.75324C8.91557 4.55046 9.28006 4.36795 9.64457 4.22594C10.0094 4.10418 10.3882 4.0025 10.767 3.96191L10.8044 3.95767C10.987 3.93873 11.1588 3.9209 11.3429 3.9209C11.527 3.9209 11.6988 3.93873 11.8813 3.95767Z" fill="#C71513"/>
<path id="Union_13" d="M7.58203 5.54538C7.90475 5.24097 8.22747 4.97714 8.57826 4.75391L11.3424 13.8458L11.2937 13.7716L11.3282 13.8257L11.3078 13.8027L11.327 13.8453L11.2798 13.7713L5.91211 7.7374C6.15064 7.31122 6.40321 6.90534 6.68383 6.54004L6.68993 6.54961C6.96836 6.16841 7.2607 5.84669 7.58062 5.54492L7.58203 5.54538Z" fill="#468E17"/>
<path id="Union_14" d="M5.31559 9.12081C5.4966 8.63954 5.70491 8.17834 5.92695 7.75684L11.3145 13.813L11.3292 13.8245L11.3212 13.8205L11.343 13.8451L11.2949 13.8075L4.84668 10.618C4.97296 10.1106 5.12731 9.60327 5.30971 9.11621L5.31559 9.12081Z" fill="#C71513"/>
<path id="Union_15" d="M11.3428 13.8447L17.3763 18.5743C17.5587 18.0872 17.713 17.6001 17.8253 17.0725C17.9515 16.5651 18.0357 16.0365 18.1059 15.4886L11.3428 13.8447Z" fill="#1E1A1B"/>
<path id="Union_16" d="M15.9867 21.1307C15.7062 21.5161 15.4117 21.8406 15.0891 22.1449L11.3757 13.8974L11.3751 13.8965L11.3291 13.8447L11.3552 13.8652L11.3428 13.8457L11.3624 13.8677L11.3428 13.8242L11.3823 13.8864L17.3626 18.5733C17.1814 19.0368 16.9864 19.5004 16.7501 19.9242L16.7589 19.934C16.5203 20.3602 16.2674 20.7654 15.9867 21.1307Z" fill="#C71513"/>
<path id="Union_17" fill-rule="evenodd" clip-rule="evenodd" d="M14.0929 22.9366C13.7562 23.1598 13.3913 23.3222 13.0265 23.4642C12.6617 23.586 12.2829 23.6884 11.904 23.729L11.3428 13.8457L11.3432 13.847L15.0891 22.1461C14.7805 22.4302 14.4437 22.694 14.0929 22.9173V22.9366Z" fill="#1E1A1B"/>
<path id="Union_18" d="M8.5791 22.9161C8.91585 23.1393 9.28067 23.322 9.64548 23.4437L9.65918 23.4652C10.0196 23.6056 10.3801 23.6865 10.7676 23.7276C10.95 23.7478 11.1464 23.7686 11.3288 23.7686C11.5253 23.7686 11.7077 23.7483 11.8901 23.7281L11.3359 13.9694L11.3429 13.8457L11.3323 13.9063L11.3288 13.8447L11.322 13.9655L11.3292 13.8242L8.5791 22.9161Z" fill="#C71513"/>
<path id="Union_19" d="M4.85973 17.051C4.73345 16.5437 4.63523 16.016 4.5791 15.4681L11.3422 13.8242L11.3282 13.8457L11.3421 13.8447L5.92597 19.933C5.70147 19.5068 5.491 19.0604 5.30859 18.5733L5.29471 18.5743C5.12633 18.0872 4.97199 17.6001 4.8457 17.0725L4.85973 17.051Z" fill="#C71513"/>
<path id="Union_20" d="M4.56543 12.2011C4.63559 11.6532 4.71977 11.1255 4.84606 10.6182L11.3285 13.8247L11.2604 13.8254L11.3428 13.8252L11.3013 13.8353L11.3428 13.8452H11.2604L4.57966 15.469C4.50951 14.9414 4.48145 14.3934 4.48145 13.8455C4.48145 13.2975 4.52354 12.7493 4.57966 12.2217L4.56543 12.2011Z" fill="#1E1A1B"/>
<path id="Union_21" fill-rule="evenodd" clip-rule="evenodd" d="M6.69848 21.1311C6.41785 20.7658 6.16529 20.36 5.92676 19.9338L11.3155 13.8561L11.3294 13.8252L11.3224 13.8483L11.3429 13.8252L11.3171 13.8657L11.3062 13.9019L11.3426 13.8447L11.2846 13.9734L8.57923 22.917C8.22845 22.7141 7.8917 22.4503 7.58301 22.1459L7.5872 22.1365C7.26817 21.8344 6.97637 21.4928 6.69848 21.1311Z" fill="#1E1A1B"/>
</g>
</g>
<path id="Union_22" d="M14.4313 13.8377C14.4353 10.7719 12.7831 8.2678 10.7825 8.24913C8.78224 8.23045 7.16062 10.785 7.15626 13.8507C7.15229 16.9165 8.80446 19.4206 10.8051 19.4393C12.8057 19.458 14.4543 16.959 14.4313 13.8377Z" fill="url(#paint5_radial_237_325)"/>
<g id="Group 3038">
<rect id="Rectangle 2365" x="14.9844" y="8.24902" width="1.2777" height="13.255" transform="rotate(41.2349 14.9844 8.24902)" fill="url(#paint6_linear_237_325)"/>
<rect id="Rectangle 2366" x="5.64453" y="10.2637" width="1.2777" height="13.3671" transform="rotate(-48.7651 5.64453 10.2637)" fill="url(#paint7_linear_237_325)"/>
<circle id="Ellipse 526" cx="6.27413" cy="9.95089" r="0.964559" fill="url(#paint8_radial_237_325)"/>
<circle id="Ellipse 527" cx="6.83565" cy="18.5085" r="0.964559" fill="url(#paint9_radial_237_325)"/>
<circle id="Ellipse 528" cx="15.4138" cy="8.70089" r="0.964559" fill="url(#paint10_radial_237_325)"/>
<circle id="Ellipse 529" cx="15.5739" cy="18.1091" r="0.964559" fill="url(#paint11_radial_237_325)"/>
</g>
<path id="Union_23" d="M12.2935 13.8208C12.2955 12.3098 11.4812 11.0757 10.4952 11.0665C9.50938 11.0573 8.71016 12.3162 8.70801 13.8272C8.70606 15.3382 9.52033 16.5723 10.5063 16.5815C11.4924 16.5907 12.3049 15.3591 12.2935 13.8208Z" fill="url(#paint12_radial_237_325)"/>
<path id="Union_24" d="M14.0249 4.85618C6.03756 -0.0535741 1.46413 16.7201 6.85182 19.6271C7.68438 14.0578 10.055 8.14222 14.0249 4.85618Z" fill="url(#paint13_linear_237_325)"/>
</g>
<defs>
<linearGradient id="paint0_linear_237_325" x1="17.8894" y1="27.2497" x2="17.7723" y2="0.299025" gradientUnits="userSpaceOnUse">
<stop stop-color="#C45800"/>
<stop offset="0.6877" stop-color="#FC940D"/>
<stop offset="1" stop-color="#E86F0C"/>
</linearGradient>
<radialGradient id="paint1_radial_237_325" cx="0" cy="0" r="1" gradientUnits="userSpaceOnUse" gradientTransform="translate(0.763946 5.74396) rotate(-29.9687) scale(23.7517 23.618)">
<stop stop-color="#FCF80D"/>
<stop offset="1" stop-color="#FC9C0D"/>
</radialGradient>
<radialGradient id="paint2_radial_237_325" cx="0" cy="0" r="1" gradientUnits="userSpaceOnUse" gradientTransform="translate(-9.851 5.87936) rotate(-29.7987) scale(34.8802 34.5642)">
<stop stop-color="#FCF80D"/>
<stop offset="0.785224" stop-color="#ED8409"/>
<stop offset="1" stop-color="#D16603"/>
</radialGradient>
<radialGradient id="paint3_radial_237_325" cx="0" cy="0" r="1" gradientUnits="userSpaceOnUse" gradientTransform="translate(17.1454 13.2514) rotate(-29.7987) scale(20.1513 19.9687)">
<stop offset="0.5149" stop-color="white"/>
<stop offset="0.6851" stop-color="#FFE2C3"/>
<stop offset="1" stop-color="#FFA84B"/>
</radialGradient>
<linearGradient id="paint4_linear_237_325" x1="6.3292" y1="26.4509" x2="6.22253" y2="1.66951" gradientUnits="userSpaceOnUse">
<stop stop-color="#FC940D"/>
<stop offset="1" stop-color="#E86F0C"/>
</linearGradient>
<radialGradient id="paint5_radial_237_325" cx="0" cy="0" r="1" gradientUnits="userSpaceOnUse" gradientTransform="translate(3.26081 10.2914) rotate(-34.9963) scale(13.4816 14.5546)">
<stop stop-color="#FCF80D"/>
<stop offset="1" stop-color="#F78A0C"/>
</radialGradient>
<linearGradient id="paint6_linear_237_325" x1="15.8184" y1="20.3628" x2="15.7681" y2="9.08874" gradientUnits="userSpaceOnUse">
<stop stop-color="#EE7B0C"/>
<stop offset="0.484375" stop-color="#C35800"/>
<stop offset="1" stop-color="#EE7B0C"/>
</linearGradient>
<linearGradient id="paint7_linear_237_325" x1="6.47856" y1="22.4798" x2="6.42735" y2="11.1105" gradientUnits="userSpaceOnUse">
<stop stop-color="#EE7B0C"/>
<stop offset="0.484375" stop-color="#C35800"/>
<stop offset="1" stop-color="#EE7B0C"/>
</linearGradient>
<radialGradient id="paint8_radial_237_325" cx="0" cy="0" r="1" gradientUnits="userSpaceOnUse" gradientTransform="translate(5.67824 9.64393) rotate(10.0834) scale(1.58516 1.33173)">
<stop stop-color="#F9BD0C"/>
<stop offset="0.697917" stop-color="#E86F0C"/>
<stop offset="1" stop-color="#D06303"/>
</radialGradient>
<radialGradient id="paint9_radial_237_325" cx="0" cy="0" r="1" gradientUnits="userSpaceOnUse" gradientTransform="translate(6.23976 18.2015) rotate(10.0834) scale(1.58516 1.33173)">
<stop stop-color="#F9BD0C"/>
<stop offset="0.697917" stop-color="#E86F0C"/>
<stop offset="1" stop-color="#D06303"/>
</radialGradient>
<radialGradient id="paint10_radial_237_325" cx="0" cy="0" r="1" gradientUnits="userSpaceOnUse" gradientTransform="translate(14.8179 8.39393) rotate(10.0834) scale(1.58516 1.33173)">
<stop stop-color="#F9BD0C"/>
<stop offset="0.697917" stop-color="#E86F0C"/>
<stop offset="1" stop-color="#D06303"/>
</radialGradient>
<radialGradient id="paint11_radial_237_325" cx="0" cy="0" r="1" gradientUnits="userSpaceOnUse" gradientTransform="translate(14.978 17.8021) rotate(10.0834) scale(1.58516 1.33173)">
<stop stop-color="#F9BD0C"/>
<stop offset="0.697917" stop-color="#E86F0C"/>
<stop offset="1" stop-color="#D06303"/>
</radialGradient>
<radialGradient id="paint12_radial_237_325" cx="0" cy="0" r="1" gradientUnits="userSpaceOnUse" gradientTransform="translate(9.39325 12.9464) rotate(15.2975) scale(3.00736 3.73002)">
<stop stop-color="#F9BD0C"/>
<stop offset="0.697917" stop-color="#E86F0C"/>
<stop offset="1" stop-color="#D06303"/>
</radialGradient>
<linearGradient id="paint13_linear_237_325" x1="13.0652" y1="-4.20739" x2="9.46113" y2="14.2056" gradientUnits="userSpaceOnUse">
<stop stop-color="white"/>
<stop offset="1" stop-color="white" stop-opacity="0"/>
</linearGradient>
</defs>
</svg>
