<svg width="31" height="35" viewBox="0 0 31 35" fill="none" xmlns="http://www.w3.org/2000/svg">
<g id="slots">
<g id="Group">
<path id="Vector" d="M4.50195 13.8383C4.50195 13.8383 5.57692 13.7985 6.97039 13.3605C7.24908 12.0069 7.64721 10.6134 8.12497 9.25977C6.81113 10.494 5.5371 12.0467 4.50195 13.8383Z" fill="url(#paint0_linear_237_326)"/>
<path id="Vector_2" d="M8.12529 9.2602C7.64753 10.6139 7.2494 11.9675 6.9707 13.361C7.8466 13.0823 8.88175 12.6842 9.87708 12.0073C9.9169 10.375 10.116 8.82225 10.5539 7.26953C9.79746 7.82692 8.96137 8.50375 8.12529 9.2602Z" fill="url(#paint1_linear_237_326)"/>
<path id="Vector_3" d="M10.5538 7.26915C10.1556 8.82187 9.95658 10.4144 9.87695 12.0069C10.5936 11.5292 11.3102 10.8922 11.9074 10.1357C11.9871 8.74224 12.1463 7.38859 12.3852 5.99512C11.8676 6.35344 11.2306 6.75157 10.5538 7.26915Z" fill="url(#paint2_linear_237_326)"/>
<path id="Vector_4" d="M13.6592 6.59314C13.6991 6.15519 13.7389 5.71724 13.8185 5.2793C13.8185 5.2793 13.2611 5.51818 12.425 6.03575C12.1861 7.38941 12.0269 8.78288 11.9473 10.1763C12.6639 9.22082 13.3009 8.06624 13.6592 6.59314Z" fill="url(#paint3_linear_237_326)"/>
<path id="Vector_5" d="M13.8186 4.95992C13.8186 5.03955 13.8186 5.15899 13.7787 5.23862C13.7787 5.23862 7.68728 8.10518 4.50221 13.8383C4.42258 9.18014 8.20486 4.40253 13.7787 4.64141C13.7787 4.76085 13.8186 4.8803 13.8186 4.95992Z" fill="#75D736"/>
</g>
<g id="Group_2">
<path id="Vector_6" d="M14.973 4.64114C20.945 1.21718 28.0318 4.80039 30.8187 12.2853C21.3431 5.03927 14.8535 5.19853 14.8535 5.19853C14.8933 5.03927 14.9331 4.84021 14.973 4.64114Z" fill="#75D736"/>
<path id="Vector_7" d="M24.6875 8.30371C25.7226 9.69718 26.6782 11.1703 27.5541 12.6832C29.4651 12.6036 30.8188 12.2851 30.8188 12.2851C28.5892 10.5731 26.5189 9.25923 24.6875 8.30371Z" fill="url(#paint4_linear_237_326)"/>
<path id="Vector_8" d="M14.8535 5.19837C15.1322 5.79557 15.4109 6.43259 15.6498 7.0696C16.8044 9.10009 18.3571 10.4139 20.0691 11.2898C19.3524 9.29915 18.4367 7.3483 17.4016 5.55669C15.7294 5.15856 14.8535 5.19837 14.8535 5.19837Z" fill="url(#paint5_linear_237_326)"/>
<path id="Vector_9" d="M20.7863 6.55273C19.4326 6.03515 18.278 5.71665 17.3623 5.51758C18.4373 7.349 19.3132 9.26004 20.0298 11.2507C21.264 11.8877 22.5779 12.246 23.8519 12.4451C22.9362 10.4544 21.901 8.46377 20.7863 6.55273Z" fill="url(#paint6_linear_237_326)"/>
<path id="Vector_10" d="M24.6871 8.30453C23.2538 7.54807 21.9798 6.99068 20.8252 6.55273C21.94 8.46378 22.9751 10.4544 23.9306 12.4849C25.2445 12.684 26.5185 12.7238 27.5935 12.684C26.638 11.1711 25.7222 9.69799 24.6871 8.30453Z" fill="url(#paint7_linear_237_326)"/>
</g>
<g id="Group_3">
<path id="Vector_11" d="M9.99526 21.6426C9.79619 22.0407 9.55731 22.3592 9.35824 22.7175C8.6416 22.7175 8.6416 22.2796 8.6416 22.2796C8.80086 22.0009 8.99992 21.7222 9.15918 21.3639C10.7915 18.4973 12.7424 13.7595 13.5785 6.59311C13.6183 6.15516 13.6581 5.71721 13.7377 5.27926C13.7377 5.19964 13.7377 5.0802 13.7775 5.00057C13.7775 4.88113 13.7377 4.76169 13.7377 4.68206C13.7377 4.60244 13.7377 4.52281 13.7377 4.44318C13.7377 3.64691 13.3396 2.89046 13.3396 2.89046C13.3794 2.97009 14.3349 2.45251 14.6136 0.939601C14.6534 0.780347 14.6534 0.660907 14.6534 0.621094C14.7331 1.05904 15.0914 3.32841 14.8923 4.68206C14.8525 4.88113 14.8127 5.0802 14.7729 5.23945C15.0516 5.83665 15.3303 6.47367 15.5691 7.11068C18.0376 13.3614 22.0189 20.7667 22.1383 22.2796C22.0189 22.3592 21.8995 22.399 21.78 22.4388C21.6606 22.4787 21.5411 22.4388 21.3819 22.4388C21.2625 21.125 17.2413 12.8438 14.4145 6.39404C13.6581 13.7197 11.7072 18.6168 9.99526 21.6426Z" fill="url(#paint8_linear_237_326)"/>
<path id="Vector_12" d="M14.6932 0.581582C14.6932 0.661208 14.6932 0.740835 14.6534 0.900089C14.3747 2.413 13.4192 2.93057 13.3793 2.85095C13.1405 2.49263 14.5737 0.0241937 14.6932 0.581582Z" fill="#32660E"/>
</g>
<g id="Group_4">
<path id="Vector_13" d="M17.7551 21.976C19.8408 25.5945 15.9947 33.9308 8.62751 31.8309C2.73375 30.151 2.26685 23.9218 4.24297 20.4902C4.70546 19.6691 5.35745 18.9953 6.07275 18.616C8.955 17.0568 10.2401 19.1185 11.3771 20.0017C11.5666 20.1489 11.735 20.233 11.9034 20.317C12.0928 20.359 12.3033 20.3589 12.5137 20.3587C13.9026 20.2106 16.0907 19.0938 17.7551 21.976Z" fill="url(#paint9_radial_237_326)"/>
<path id="Vector_14" d="M17.7555 21.9771C17.587 21.6825 17.3974 21.4301 17.2078 21.1777C17.4006 26.481 11.5532 31.6618 6.79609 30.339C6.2488 30.1709 5.70152 30.0029 5.17525 29.7928C5.99657 30.6762 7.17555 31.3699 8.64899 31.7899C15.9531 33.9109 19.8413 25.5956 17.7555 21.9771Z" fill="url(#paint10_linear_237_326)" fill-opacity="0.5"/>
<path id="Vector_15" d="M9.67272 19.623C3.63103 16.9751 2.81695 27.6666 6.83758 29.2004C6.64597 25.686 7.44332 21.8762 9.67272 19.623Z" fill="url(#paint11_linear_237_326)"/>
<path id="Vector_16" d="M3.4266 26.6567C3.9752 28.9293 5.57595 30.9907 8.62805 31.8306C11.9749 32.8177 14.6048 31.5533 16.3082 29.6161C15.6549 28.1854 14.707 26.818 13.2541 25.5141C10.327 22.6327 6.01346 23.8982 3.4266 26.6567Z" fill="url(#paint12_linear_237_326)" fill-opacity="0.5"/>
<path id="Vector_17" d="M15.8404 21.0721C15.8404 21.0721 14.9981 20.2308 12.957 20.7371C11.1053 21.1802 11.0202 19.7703 10.3048 19.9391C9.56832 20.15 10.1166 21.8964 12.1373 22.4844C14.7895 23.1773 15.8404 21.0721 15.8404 21.0721Z" fill="url(#paint13_linear_237_326)"/>
</g>
<g id="Group_5">
<path id="Vector_18" d="M25.4471 19.2289C28.7932 21.4445 29.0645 30.2618 21.8298 31.6184C16.042 32.7036 12.9672 27.5488 13.1933 23.7506C13.2385 22.8462 13.5098 21.9871 13.962 21.3541C15.7707 18.7767 17.7602 19.9975 19.1167 20.2689C19.3428 20.3141 19.5237 20.3141 19.7045 20.3141C19.8854 20.2689 20.0663 20.1784 20.2472 20.088C21.3776 19.3645 22.7793 17.4654 25.4471 19.2289Z" fill="url(#paint14_radial_237_326)"/>
<path id="Vector_19" d="M25.4481 19.2295C25.1768 19.0486 24.9055 18.913 24.6342 18.7773C27.076 23.2538 24.2725 30.2173 19.6151 31.1216C19.0725 31.2121 18.5299 31.3025 17.9873 31.3477C19.0725 31.7547 20.3838 31.8451 21.8308 31.5738C29.0203 30.2625 28.7942 21.4452 25.4481 19.2295Z" fill="url(#paint15_linear_237_326)"/>
<path id="Vector_20" d="M17.4895 20.6748C11.1591 20.9913 15.0477 30.5321 19.1625 30.1252C17.4895 27.1861 16.5399 23.5687 17.4895 20.6748Z" fill="url(#paint16_linear_237_326)"/>
<path id="Vector_21" d="M15.1377 29.4023C16.5846 31.1205 18.8455 32.2057 21.8298 31.6179C25.1307 31.0301 26.8489 28.8145 27.482 26.4179C26.3063 25.4684 24.9046 24.6997 23.0959 24.2023C19.3429 22.9814 16.1777 25.9206 15.1377 29.4023Z" fill="url(#paint17_linear_237_326)"/>
<path id="Vector_22" d="M23.4124 19.2733C23.4124 19.2733 22.3272 18.9115 20.7898 20.2228C19.388 21.3985 18.7098 20.2228 18.1672 20.675C17.6246 21.1724 18.8454 22.4385 20.835 22.0767C23.4124 21.5341 23.4124 19.2733 23.4124 19.2733Z" fill="url(#paint18_linear_237_326)"/>
</g>
</g>
<defs>
<linearGradient id="paint0_linear_237_326" x1="3.21223" y1="14.0848" x2="4.23927" y2="9.26362" gradientUnits="userSpaceOnUse">
<stop stop-color="#75D736"/>
<stop offset="1" stop-color="#32660E"/>
</linearGradient>
<linearGradient id="paint1_linear_237_326" x1="5.69516" y1="13.6889" x2="7.47086" y2="7.49244" gradientUnits="userSpaceOnUse">
<stop stop-color="#75D736"/>
<stop offset="1" stop-color="#32660E"/>
</linearGradient>
<linearGradient id="paint2_linear_237_326" x1="8.98407" y1="12.3306" x2="11.2826" y2="6.64158" gradientUnits="userSpaceOnUse">
<stop stop-color="#75D736"/>
<stop offset="1" stop-color="#32660E"/>
</linearGradient>
<linearGradient id="paint3_linear_237_326" x1="11.2811" y1="10.44" x2="13.2718" y2="5.92758" gradientUnits="userSpaceOnUse">
<stop stop-color="#75D736"/>
<stop offset="1" stop-color="#32660E"/>
</linearGradient>
<linearGradient id="paint4_linear_237_326" x1="29.2919" y1="10.8667" x2="25.3738" y2="8.87342" gradientUnits="userSpaceOnUse">
<stop stop-color="#75D736"/>
<stop offset="1" stop-color="#32660E"/>
</linearGradient>
<linearGradient id="paint5_linear_237_326" x1="18.7702" y1="8.76285" x2="14.9449" y2="7.57284" gradientUnits="userSpaceOnUse">
<stop stop-color="#75D736"/>
<stop offset="1" stop-color="#32660E"/>
</linearGradient>
<linearGradient id="paint6_linear_237_326" x1="22.2357" y1="9.57182" x2="17.5575" y2="7.97924" gradientUnits="userSpaceOnUse">
<stop stop-color="#75D736"/>
<stop offset="1" stop-color="#32660E"/>
</linearGradient>
<linearGradient id="paint7_linear_237_326" x1="25.9079" y1="10.1491" x2="21.2151" y2="8.27082" gradientUnits="userSpaceOnUse">
<stop stop-color="#75D736"/>
<stop offset="1" stop-color="#32660E"/>
</linearGradient>
<linearGradient id="paint8_linear_237_326" x1="15.39" y1="0.621094" x2="15.39" y2="22.7175" gradientUnits="userSpaceOnUse">
<stop stop-color="#75D736"/>
<stop offset="1" stop-color="#32660E"/>
</linearGradient>
<radialGradient id="paint9_radial_237_326" cx="0" cy="0" r="1" gradientUnits="userSpaceOnUse" gradientTransform="translate(5.49805 18.5) rotate(34.2869) scale(13.3135 9.26111)">
<stop stop-color="#EF1211"/>
<stop offset="0.717771" stop-color="#AA0807"/>
<stop offset="1" stop-color="#7A0100"/>
</radialGradient>
<linearGradient id="paint10_linear_237_326" x1="15.5855" y1="35.4202" x2="12.3029" y2="27.8341" gradientUnits="userSpaceOnUse">
<stop stop-color="#FFD466"/>
<stop offset="1" stop-color="#FFD466" stop-opacity="0"/>
</linearGradient>
<linearGradient id="paint11_linear_237_326" x1="7.80215" y1="14.0232" x2="6.64169" y2="25.5638" gradientUnits="userSpaceOnUse">
<stop stop-color="white"/>
<stop offset="1" stop-color="white" stop-opacity="0"/>
</linearGradient>
<linearGradient id="paint12_linear_237_326" x1="8.73096" y1="34.7436" x2="10.6103" y2="23.786" gradientUnits="userSpaceOnUse">
<stop stop-color="#EF1211"/>
<stop offset="1" stop-color="#F58E45" stop-opacity="0"/>
</linearGradient>
<linearGradient id="paint13_linear_237_326" x1="13.2213" y1="18.0543" x2="12.6602" y2="23.3184" gradientUnits="userSpaceOnUse">
<stop stop-color="white"/>
<stop offset="1" stop-color="white" stop-opacity="0"/>
</linearGradient>
<radialGradient id="paint14_radial_237_326" cx="0" cy="0" r="1" gradientUnits="userSpaceOnUse" gradientTransform="translate(15.498 22.5) rotate(27.8973) scale(19.2354 13.3805)">
<stop stop-color="#EF1211"/>
<stop offset="0.761836" stop-color="#AA0807"/>
</radialGradient>
<linearGradient id="paint15_linear_237_326" x1="29.352" y1="31.7177" x2="23.2742" y2="26.6048" gradientUnits="userSpaceOnUse">
<stop stop-color="#FFD466"/>
<stop offset="1" stop-color="#FFD466" stop-opacity="0"/>
</linearGradient>
<linearGradient id="paint16_linear_237_326" x1="13.4781" y1="16.6635" x2="17.4333" y2="27.0829" gradientUnits="userSpaceOnUse">
<stop stop-color="white"/>
<stop offset="1" stop-color="white" stop-opacity="0"/>
</linearGradient>
<linearGradient id="paint17_linear_237_326" x1="23.1684" y1="34.078" x2="20.0814" y2="23.8513" gradientUnits="userSpaceOnUse">
<stop stop-color="#EF1211"/>
<stop offset="1" stop-color="#F58E45" stop-opacity="0"/>
</linearGradient>
<linearGradient id="paint18_linear_237_326" x1="19.8656" y1="17.803" x2="21.6424" y2="22.5693" gradientUnits="userSpaceOnUse">
<stop stop-color="white"/>
<stop offset="1" stop-color="white" stop-opacity="0"/>
</linearGradient>
</defs>
</svg>
