<svg width="28" height="28" viewBox="0 0 28 28" fill="none" xmlns="http://www.w3.org/2000/svg">
<g id="sport">
<g id="Group 3040">
<path id="Vector" d="M13.9971 27.5C21.4513 27.5 27.4941 21.4571 27.4941 14.0029C27.4941 6.5487 21.4513 0.505859 13.9971 0.505859C6.54284 0.505859 0.5 6.5487 0.5 14.0029C0.5 21.4571 6.54284 27.5 13.9971 27.5Z" fill="#F76D2F"/>
<path id="Vector_2" d="M21.0192 2.47266C22.9861 4.81882 24.1673 7.83685 24.1673 11.1367C24.1673 18.5923 18.1258 24.6338 10.6701 24.6338C8.10181 24.6338 5.70147 23.9132 3.65332 22.667C6.12952 25.62 9.84653 27.5002 14.0024 27.5002C21.4581 27.5002 27.4996 21.4587 27.4996 14.003C27.4996 9.12101 24.9042 4.84049 21.0192 2.47266Z" fill="#E0602D"/>
<path id="Intersect" d="M9.11442 22.6614C9.19342 22.8383 9.27522 23.0122 9.35979 23.1829C10.002 24.4755 10.6054 25.459 11.3284 26.191C11.9023 26.7722 12.5469 27.1903 13.3353 27.4833C13.8916 27.5111 14.445 27.504 14.9926 27.4634L15.0139 27.2734C13.1219 26.774 11.6485 25.3627 10.5815 23.4833C10.4332 23.2221 10.2928 22.9519 10.1602 22.6738C11.2519 22.7463 12.0426 22.9745 12.6734 23.2766C13.3311 23.5915 13.8241 23.9905 14.3166 24.4018L14.401 24.4723L14.4033 24.4743C15.2124 25.1531 16.0803 25.8812 17.601 26.1786L17.679 26.1939C18.2187 26.3 18.7541 26.4051 19.2286 26.3373C19.3626 26.3179 19.4832 26.2989 19.5917 26.2806C19.8447 26.1649 20.0941 26.0414 20.3393 25.9104C20.4239 25.8693 20.5079 25.824 20.59 25.7756C20.9801 25.5578 21.3594 25.3208 21.7264 25.0653L21.6219 24.9006L21.6175 24.902C21.6079 24.9063 21.5878 24.9154 21.5548 24.9292C21.5027 24.9508 21.4267 24.9806 21.3292 25.0146C21.1342 25.0827 20.854 25.1675 20.5073 25.2384C19.8135 25.3804 18.8573 25.466 17.7864 25.2551C17.6199 25.2219 17.463 25.183 17.3142 25.1389C16.32 24.8447 15.6902 24.3214 15.004 23.748L14.9894 23.7358C14.4204 23.2616 13.8214 22.7624 12.9918 22.3799C12.1823 22.0065 11.1634 21.7483 9.74416 21.712C9.39609 20.8225 9.12113 19.8773 8.91788 18.9128C10.0991 19.0432 11.3239 19.1114 12.5462 19.1114C13.3256 19.1114 14.106 19.0841 14.8748 19.0295C17.4099 18.8387 19.7582 18.3587 21.8532 17.5929C24.1673 16.749 25.9532 15.6702 27.4985 14.196C27.5045 13.8039 27.4931 13.4136 27.465 13.0262L27.3501 13.1388C23.6592 16.755 17.7336 18.175 12.5299 18.175C11.2158 18.175 9.93783 18.0931 8.73916 17.9474C8.56684 16.8706 8.48194 15.7865 8.48194 14.7444C8.48194 14.3157 8.49001 13.8926 8.50604 13.4757C8.5989 13.4792 8.69013 13.4809 8.77975 13.4809C11.4846 13.4809 12.7542 11.9164 14.1137 10.2409L14.1475 10.1992L14.1569 10.1876C15.0336 9.09436 16.0108 7.87796 17.5026 6.92574C19.6657 5.54458 21.2294 5.03516 22.2425 4.86774C22.749 4.78403 23.1187 4.78567 23.3579 4.8069C23.4776 4.81752 23.5649 4.83307 23.6206 4.8454C23.6484 4.85157 23.6683 4.85691 23.6803 4.86041L23.692 4.86399L23.6895 4.86307L23.6856 4.86151C23.6856 4.86151 23.679 4.85884 23.6721 4.8554L23.7835 4.70001C23.5268 4.42926 23.2583 4.1686 22.9785 3.91891C22.2932 3.8551 20.5476 3.98938 16.9992 6.13071C15.4289 7.07502 14.4306 8.32857 13.567 9.41285L13.4078 9.6126L13.4041 9.61726C12.7402 10.4444 12.1539 11.1729 11.4434 11.6996C10.742 12.2196 9.91583 12.5445 8.76891 12.5445C8.69913 12.5445 8.62819 12.5433 8.55603 12.5409C8.71916 10.1709 9.14932 8.03556 9.82323 6.27674C10.8705 3.55489 13.0453 1.55392 15.1492 0.734588L15.1208 0.549244C15.0487 0.543316 14.9766 0.537987 14.9046 0.533254C14.7483 0.520384 14.589 0.510579 14.4321 0.507515C14.2344 0.50087 14.0372 0.49865 13.8406 0.500783C11.697 1.46122 10.0134 3.15348 8.94584 5.93847C8.23975 7.78355 7.79047 10.0049 7.61895 12.4486C7.43175 12.419 7.23712 12.3823 7.0345 12.3378C6.47395 12.2149 6.02068 11.9742 5.66823 11.6211C5.31519 11.2674 5.05392 10.7916 4.89311 10.1848C4.61205 9.11783 4.67148 7.67035 5.08198 6.21496C5.26449 5.56159 5.56897 4.82551 5.90244 4.18657C6.23921 3.54132 6.59261 3.02032 6.86472 2.77762L6.74246 2.62244C6.18162 2.97921 5.64663 3.37747 5.14265 3.81447C4.74083 4.43455 4.42883 5.20175 4.17965 5.9456C3.63575 7.54981 3.65147 9.16114 3.9807 10.4167C4.38296 11.9464 5.36887 12.9333 6.82958 13.2541L6.83068 13.2543C7.08524 13.3087 7.33067 13.353 7.56718 13.3874C7.54918 13.8334 7.5401 14.2861 7.5401 14.7444C7.5401 15.7828 7.61378 16.812 7.75656 17.8111C5.95419 17.5294 4.38066 17.1043 3.20052 16.6082C2.49897 16.3159 1.89393 16.0041 1.45448 15.6945C1.23478 15.5397 1.06173 15.3891 0.939208 15.2462C0.818734 15.1057 0.755689 14.9826 0.735562 14.8786L0.72741 14.7866L0.524414 14.7956C0.524498 14.7971 0.524583 14.7987 0.524668 14.8002C0.525828 14.8197 0.527031 14.8391 0.528276 14.8586C0.528226 14.8455 0.52819 14.8273 0.52819 14.8042L0.528392 14.8065C0.528514 14.8316 0.528567 14.8505 0.528577 14.8633C0.555534 15.2824 0.602081 15.6984 0.667548 16.1099C0.783143 16.2637 0.922294 16.4161 1.12904 16.5767C1.46364 16.8366 1.96826 17.1131 2.82921 17.4756C4.22957 18.0655 5.99892 18.5105 7.9197 18.7862C8.11966 19.8267 8.39646 20.8259 8.74488 21.7581C8.18018 21.8496 7.76961 22.0568 7.47381 22.3079C7.13601 22.5947 6.95947 22.9289 6.86875 23.1846C6.5455 24.0964 6.80357 25.0323 7.47287 25.816C7.93322 26.0696 8.4122 26.2981 8.90832 26.4992L9.00497 26.3372C8.61997 26.0202 8.23841 25.4844 7.98891 24.9267C7.86484 24.6493 7.77648 24.3731 7.73569 24.1232C7.69453 23.871 7.70442 23.6591 7.7606 23.5022C7.92735 23.0298 8.36604 22.724 9.11442 22.6614Z" fill="#40271B"/>
<path id="Vector_3" opacity="0.7" d="M20.3393 25.9104C20.4238 25.8693 20.5078 25.824 20.5899 25.7756C22.9518 24.4573 24.9191 22.4307 26.1472 19.8856C26.1521 19.8751 26.1583 19.8653 26.1607 19.8549C26.4763 19.2016 26.7405 18.5134 26.9525 17.7933C27.6677 15.3505 27.661 12.8673 27.0561 10.5747C27.0512 10.5526 27.0469 10.5348 27.0402 10.5128C26.5811 8.80477 25.7924 7.20403 24.7217 5.8043C24.6366 5.6897 24.5477 5.57755 24.4576 5.46724C22.7943 3.42341 20.5176 1.84596 17.7947 1.04682C16.8338 0.765521 15.8655 0.596377 14.9045 0.533254C14.7482 0.520385 14.5889 0.510579 14.432 0.507515C12.026 0.42662 9.68242 1.00147 7.62692 2.10397C7.56808 2.13277 7.51538 2.16402 7.46083 2.19589C5.23926 3.42403 3.36332 5.27419 2.12046 7.59318C2.0267 7.76233 1.93906 7.9376 1.85387 8.11042C1.53274 8.77413 1.26247 9.47461 1.04736 10.2051C0.649624 11.5693 0.473736 12.9482 0.503153 14.2989C0.508669 14.4656 0.515409 14.6329 0.524603 14.8002C0.726231 18.1843 2.20504 21.365 4.6117 23.698C4.70485 23.7887 4.79923 23.8782 4.89667 23.9683C6.08008 25.0512 7.47616 25.9367 9.03892 26.5514C9.23626 26.6299 9.43176 26.7028 9.63706 26.7708L9.6389 26.7714C9.82521 26.8352 10.0134 26.8946 10.2064 26.9528C13.7284 27.9842 17.3381 27.5136 20.3393 25.9104Z" fill="url(#paint0_radial_238_308)"/>
<path id="Union" d="M17.7077 2.83724C4.11369 -3.17486 -3.67005 17.3648 5.49952 20.9245C6.91649 14.1048 10.9512 6.86105 17.7077 2.83724Z" fill="url(#paint1_linear_238_308)"/>
</g>
</g>
<defs>
<radialGradient id="paint0_radial_238_308" cx="0" cy="0" r="1" gradientUnits="userSpaceOnUse" gradientTransform="translate(9.5 10.5) rotate(-158.874) scale(20.4862 20.4859)">
<stop offset="0.4302" stop-color="#657765" stop-opacity="0"/>
<stop offset="0.821826" stop-color="#272527" stop-opacity="0.7"/>
<stop offset="1" stop-color="#151D18" stop-opacity="0.7"/>
</radialGradient>
<linearGradient id="paint1_linear_238_308" x1="3.20927" y1="5.97148" x2="11.2482" y2="12.3507" gradientUnits="userSpaceOnUse">
<stop stop-color="white"/>
<stop offset="0.897752" stop-color="white" stop-opacity="0"/>
</linearGradient>
</defs>
</svg>
