<svg width="28" height="28" viewBox="0 0 28 28" fill="none" xmlns="http://www.w3.org/2000/svg">
<g id="sport">
<path id="Vector" d="M7.66087 25.9101C7.57619 25.8689 7.49274 25.8235 7.41052 25.7757C5.04876 24.4576 3.08155 22.4302 1.85312 19.8856C1.84821 19.8751 1.84207 19.8653 1.83962 19.8549C1.52423 19.2014 1.25976 18.5129 1.04746 17.7937C0.331996 15.3509 0.339359 12.8676 0.943758 10.5745C0.948667 10.5524 0.952962 10.5347 0.959711 10.5126C1.41869 8.80425 2.20778 7.20394 3.27852 5.80366C3.36381 5.68953 3.45217 5.57724 3.54237 5.46679C5.20584 3.42283 7.48231 1.84522 10.2055 1.04629C11.1664 0.765251 12.1346 0.595893 13.0955 0.53269C13.2514 0.519804 13.4109 0.509986 13.568 0.507532C15.974 0.426534 18.3173 1.00149 20.3729 2.10355C20.4318 2.13239 20.4845 2.16368 20.5392 2.19559C22.761 3.42405 24.6368 5.27411 25.8793 7.59297C25.9732 7.76233 26.0604 7.93721 26.1456 8.11025C26.4666 8.77418 26.7372 9.47494 26.9525 10.2051C27.3501 11.5692 27.5263 12.9486 27.4962 14.2992C27.4907 14.4655 27.4839 14.633 27.4747 14.8005C27.2728 18.1846 25.7941 21.365 23.3875 23.6986C23.2942 23.7894 23.1997 23.879 23.1028 23.9686C21.9192 25.0516 20.5238 25.9371 18.961 26.5519C18.764 26.6304 18.5683 26.7035 18.3633 26.771L18.3615 26.7716C18.1749 26.8354 17.9872 26.8949 17.7939 26.9532C14.2712 27.9841 10.6614 27.5128 7.66087 25.9101Z" fill="url(#paint0_linear_237_345)"/>
<path id="Vector_2" d="M3.45744 20.7502L3.45293 20.7483C3.40132 20.7359 2.66211 20.5624 1.92226 19.9286C1.91645 19.9181 1.91129 19.9082 1.90806 19.897C1.57652 19.2378 1.29786 18.5427 1.07532 17.8166C0.32321 15.3501 0.33095 12.8421 0.967601 10.5274C0.972117 10.5051 0.976632 10.4871 0.983082 10.4642C1.19981 10.3843 1.51459 10.2895 1.69327 10.3267C1.69585 10.3267 1.69585 10.3267 1.69585 10.3267C1.71197 10.331 1.72423 10.3347 1.73777 10.3397C1.73777 10.3397 1.79389 10.3955 1.88484 10.4871C1.88549 10.4896 1.88549 10.4896 1.88807 10.4915C2.13899 10.7486 2.65115 11.2666 3.0143 11.5962C3.02978 11.6098 3.04397 11.624 3.06203 11.6371C3.07687 11.6513 3.09171 11.6649 3.10654 11.6767C3.16718 11.7318 3.21878 11.7771 3.2678 11.8093C3.27038 11.8155 3.27748 11.8192 3.28328 11.8229C3.28586 11.8273 3.29038 11.831 3.2936 11.8335C3.2936 11.8353 3.29554 11.8335 3.29554 11.8353L4.18182 17.4368V17.4411L3.46647 20.7118L3.46712 20.7142L3.45744 20.7502Z" fill="url(#paint1_linear_237_345)"/>
<path id="Vector_3" opacity="0.3" d="M3.45744 20.7502L3.45293 20.7483C3.40132 20.7359 2.66211 20.5624 1.92226 19.9286C1.91645 19.9181 1.91129 19.9082 1.90806 19.897C1.57652 19.2378 1.29786 18.5427 1.07532 17.8166C0.32321 15.3501 0.33095 12.8421 0.967601 10.5274C0.972117 10.5051 0.976632 10.4871 0.983082 10.4642C1.19981 10.3843 1.51459 10.2895 1.69327 10.3267C1.69585 10.3267 1.69585 10.3267 1.69585 10.3267C1.71197 10.331 1.72423 10.3347 1.73777 10.3397C1.73777 10.3397 1.79389 10.3955 1.88484 10.4871C1.88549 10.4896 1.88549 10.4896 1.88807 10.4915C2.13899 10.7486 2.65115 11.2666 3.0143 11.5962C3.02978 11.6098 3.04397 11.624 3.06203 11.6371C3.07687 11.6513 3.09171 11.6649 3.10654 11.6767C3.16718 11.7318 3.21878 11.7771 3.2678 11.8093C3.27038 11.8155 3.27748 11.8192 3.28328 11.8229C3.28586 11.8273 3.29038 11.831 3.2936 11.8335C3.2936 11.8353 3.29554 11.8335 3.29554 11.8353L4.18182 17.4368V17.4411L3.46647 20.7118L3.46712 20.7142L3.45744 20.7502Z" fill="url(#paint2_linear_237_345)"/>
<path id="Vector_4" d="M7.47057 25.6588C7.38824 25.6165 7.30531 25.5699 7.22298 25.522C4.89356 24.1859 2.95278 22.1324 1.74086 19.5542C1.73541 19.5436 1.73057 19.5337 1.72754 19.5225L3.17798 20.3767L3.18221 20.3786L3.19856 20.3941V20.3966L7.85255 24.4701C7.95001 25.172 7.37855 25.4555 7.47057 25.6588Z" fill="url(#paint3_linear_237_345)"/>
<path id="Vector_5" opacity="0.2" d="M7.47057 25.6588C7.38824 25.6165 7.30531 25.5699 7.22298 25.522C4.89356 24.1859 2.95278 22.1324 1.74086 19.5542C1.73541 19.5436 1.73057 19.5337 1.72754 19.5225L3.17798 20.3767L3.18221 20.3786L3.19856 20.3941V20.3966L7.85255 24.4701C7.95001 25.172 7.37855 25.4555 7.47057 25.6588Z" fill="url(#paint4_linear_237_345)"/>
<path id="Vector_6" opacity="0.26" d="M7.47057 25.6588C7.38824 25.6165 7.30531 25.5699 7.22298 25.522C4.89356 24.1859 2.95278 22.1324 1.74086 19.5542C1.73541 19.5436 1.73057 19.5337 1.72754 19.5225L3.17798 20.3767L3.18221 20.3786L3.19856 20.3941V20.3966L7.85255 24.4701C7.95001 25.172 7.37855 25.4555 7.47057 25.6588Z" fill="url(#paint5_linear_237_345)"/>
<path id="Vector_7" d="M17.7326 26.9399C14.1746 27.9951 10.533 27.5149 7.50273 25.8766C7.41848 25.8353 7.33176 25.7876 7.25 25.7381C7.48105 25.1393 7.8942 24.6785 7.8942 24.6785L10.3304 23.8184L15.9059 24.8234L18.9089 26.5312C18.7113 26.6102 18.5137 26.6854 18.308 26.7556L18.3055 26.7569C18.1166 26.8214 17.9265 26.8823 17.7326 26.9399Z" fill="url(#paint6_linear_237_345)"/>
<path id="Vector_8" d="M23.2051 23.8181L24.214 20.2729L26.7837 15.4405L27.5004 14C27.4956 14.1695 27.4885 14.3402 27.4801 14.5084C27.2827 17.9446 25.8365 21.1745 23.4846 23.5434C23.3928 23.6381 23.2999 23.7272 23.2051 23.8181Z" fill="url(#paint7_linear_237_345)"/>
<path id="Vector_9" d="M6.64414 4.70273L3.67591 5.38416L3.56836 5.40906C5.19668 3.38604 7.42766 1.82337 10.0931 1.03445C11.034 0.755687 11.9827 0.588063 12.9231 0.524293C13.0769 0.511539 13.2319 0.503644 13.3863 0.5L12.4418 1.46323L12.4412 1.46566L11.9809 1.93391L7.26603 4.38145L7.23298 4.39785L6.64414 4.70273Z" fill="url(#paint8_linear_237_345)"/>
<path id="Vector_10" d="M26.2726 7.86351L25.6156 7.54525L25.608 7.5413C25.5951 7.46456 25.5833 7.39007 25.5722 7.31051C25.5686 7.29245 25.3103 7.22248 25.3074 7.20499L25.295 7.13671C25.295 7.13671 24.8177 5.42183 21.3442 3.29955C21.3442 3.29955 21.3395 3.29616 21.3277 3.2939C21.3225 3.29108 21.3148 3.28939 21.3084 3.28713C21.2673 3.2719 21.1951 3.24707 21.0993 3.21829L21.0964 3.21716L21.0811 3.2008L20.75 2.34082C20.8052 2.36678 20.8563 2.39499 20.9085 2.42434C23.0328 3.55348 24.8283 5.25537 26.0184 7.38894C26.1088 7.54299 26.191 7.70325 26.2726 7.86351Z" fill="url(#paint9_linear_237_345)"/>
<path id="Vector_11" d="M12.427 1.11328C12.427 1.11328 9.07981 1.7195 7.22202 3.71085C7.22202 3.71085 6.4033 5.85126 6.70247 7.8395C6.70247 7.8395 9.52376 9.0389 10.6506 9.70413L16.3835 6.87923L17.0683 2.98226C17.0677 2.98226 16.133 1.59528 12.427 1.11328Z" fill="url(#paint10_linear_237_345)"/>
<path id="Vector_12" opacity="0.3" d="M12.427 1.11328C12.427 1.11328 9.07981 1.7195 7.22202 3.71085C7.22202 3.71085 6.4033 5.85126 6.70247 7.8395C6.70247 7.8395 9.52376 9.0389 10.6506 9.70413L16.3835 6.87923L17.0683 2.98226C17.0677 2.98226 16.133 1.59528 12.427 1.11328Z" fill="url(#paint11_linear_237_345)"/>
<path id="Vector_13" d="M3.02903 11.7915C3.02903 11.7915 2.58124 13.6136 3.88949 17.561C3.88949 17.561 5.78413 18.976 8.58752 19.5223L11.5458 16.1091C11.5458 16.1091 10.7123 12.6422 10.7405 9.77981C10.7405 9.77981 8.27394 8.20403 6.87538 7.86386C6.87538 7.86386 6.32975 7.7911 5.00708 9.2788C3.68629 10.7659 3.0723 11.5119 3.02903 11.7915Z" fill="url(#paint12_linear_237_345)"/>
<path id="Vector_14" opacity="0.3" d="M3.02903 11.7915C3.02903 11.7915 2.58124 13.6136 3.88949 17.561C3.88949 17.561 5.78413 18.976 8.58752 19.5223L11.5458 16.1091C11.5458 16.1091 10.7123 12.6422 10.7405 9.77981C10.7405 9.77981 8.27394 8.20403 6.87538 7.86386C6.87538 7.86386 6.32975 7.7911 5.00708 9.2788C3.68629 10.7659 3.0723 11.5119 3.02903 11.7915Z" fill="url(#paint13_linear_237_345)"/>
<path id="Vector_15" d="M16.192 24.9653C16.192 24.9653 13.5064 25.466 10.4235 23.9625C10.4235 23.9625 8.92364 21.5968 8.47754 19.2855C8.47754 19.2855 11.4015 16.0996 11.4765 15.8408C11.4765 15.8408 16.299 16.9311 16.9233 17.0149C17.5476 17.0987 18.0828 17.1831 18.1469 17.053L20.1364 21.1123C20.1377 21.1129 18.7443 23.4373 16.192 24.9653Z" fill="url(#paint14_linear_237_345)"/>
<path id="Vector_16" opacity="0.3" d="M16.192 24.9653C16.192 24.9653 13.5064 25.466 10.4235 23.9625C10.4235 23.9625 8.92364 21.5968 8.47754 19.2855C8.47754 19.2855 11.4015 16.0996 11.4765 15.8408C11.4765 15.8408 16.299 16.9311 16.9233 17.0149C17.5476 17.0987 18.0828 17.1831 18.1469 17.053L20.1364 21.1123C20.1377 21.1129 18.7443 23.4373 16.192 24.9653Z" fill="url(#paint15_linear_237_345)"/>
<path id="Vector_17" opacity="0.3" d="M16.192 24.9653C16.192 24.9653 13.5064 25.466 10.4235 23.9625C10.4235 23.9625 8.92364 21.5968 8.47754 19.2855C8.47754 19.2855 11.4015 16.0996 11.4765 15.8408C11.4765 15.8408 16.299 16.9311 16.9233 17.0149C17.5476 17.0987 18.0828 17.1831 18.1469 17.053L20.1364 21.1123C20.1377 21.1129 18.7443 23.4373 16.192 24.9653Z" fill="url(#paint16_linear_237_345)"/>
<path id="Vector_18" d="M25.41 7.33894C25.41 7.33894 24.9095 5.52123 21.2672 3.269C21.2672 3.269 19.3143 2.47357 17.1132 3.41504L16.4551 7.17015L20.7752 11.5459C20.7752 11.5459 21.913 11.3598 22.6967 11.3143C23.4811 11.2694 25.2598 11.1288 25.503 11.4286C25.503 11.4286 25.9032 10.1167 25.4235 7.41136" fill="url(#paint17_linear_237_345)"/>
<path id="Vector_19" opacity="0.1" d="M25.41 7.33894C25.41 7.33894 24.9095 5.52123 21.2672 3.269C21.2672 3.269 19.3143 2.47357 17.1132 3.41504L16.4551 7.17015L20.7752 11.5459C20.7752 11.5459 21.913 11.3598 22.6967 11.3143C23.4811 11.2694 25.2598 11.1288 25.503 11.4286C25.503 11.4286 25.9032 10.1167 25.4235 7.41136" fill="url(#paint18_linear_237_345)"/>
<path id="Vector_20" opacity="0.05" d="M25.41 7.33894C25.41 7.33894 24.9095 5.52123 21.2672 3.269C21.2672 3.269 19.3143 2.47357 17.1132 3.41504L16.4551 7.17015L20.7752 11.5459C20.7752 11.5459 21.913 11.3598 22.6967 11.3143C23.4811 11.2694 25.2598 11.1288 25.503 11.4286C25.503 11.4286 25.9032 10.1167 25.4235 7.41136" fill="url(#paint19_linear_237_345)"/>
<path id="Vector_21" d="M18.3431 26.8854L18.3405 26.8867C16.7805 26.3248 15.8205 24.965 15.8411 24.8577C15.8411 24.8577 19.0857 22.292 19.7386 20.8143L19.8109 20.8051L24.4096 20.1367C24.5386 21.3709 24.076 22.661 23.6251 23.5906C23.5257 23.69 23.4257 23.7847 23.3238 23.8801C22.0799 25.0413 20.6134 25.9906 18.9683 26.6498C18.7631 26.7334 18.5567 26.8117 18.3431 26.8854Z" fill="url(#paint20_linear_237_345)"/>
<path id="Vector_22" d="M17.6816 25.7816C17.9655 25.9711 18.2922 26.147 18.6595 26.273L18.6613 26.2724C18.8464 26.2117 19.025 26.1464 19.2037 26.0777C20.6275 25.5319 21.8974 24.7461 22.974 23.7856C23.0622 23.7066 23.1491 23.6287 23.2343 23.5462C23.4606 23.1012 23.6863 22.5554 23.8179 21.9775C21.945 23.4695 19.8877 24.7524 17.6816 25.7816Z" fill="url(#paint21_radial_237_345)"/>
<path id="Vector_23" d="M4.22521 17.0684C4.22521 17.0684 3.75865 18.2217 3.61625 19.341C3.57168 19.6899 3.55316 19.9576 3.58268 20.2849C3.62494 20.7391 4.49148 21.8206 5.40491 22.682C6.73049 23.9339 7.74754 24.4477 8.10121 24.4316C8.7941 24.4012 10.3182 23.6092 10.3182 23.6092C10.3182 23.6092 8.98165 21.1872 8.56082 18.9728C8.5614 18.9728 7.60282 18.9059 4.22521 17.0684Z" fill="url(#paint22_linear_237_345)"/>
<path id="Vector_24" d="M6.77336 8.00553C6.77336 8.00553 6.40577 8.07226 5.72991 8.65387C4.94366 9.3304 3.29012 11.2058 3.17151 11.5452C3.17151 11.5452 2.09577 10.634 1.86148 10.2549C1.62895 9.87576 1.6906 8.96567 2.11397 7.96526C2.53851 6.96485 3.38936 5.28963 4.70526 4.80755C6.02057 4.32489 7.25016 4.18164 7.25016 4.18164C7.25016 4.18164 6.52556 6.68584 6.77336 8.00553Z" fill="url(#paint23_linear_237_345)"/>
<path id="Vector_25" opacity="0.98" d="M6.63663 4.18164C6.14954 4.27703 5.46398 4.44012 4.75088 4.70291C3.41546 5.19402 2.55084 6.89998 2.12073 7.91913C1.68998 8.93889 1.62675 9.86511 1.86466 10.251C1.96671 10.4165 2.22591 10.6824 2.48886 10.9316C3.39793 8.42501 4.82038 6.12824 6.63663 4.18164Z" fill="url(#paint24_radial_237_345)"/>
<path id="Vector_26" d="M21.3632 2.82316C21.3632 2.82316 21.3583 2.81993 21.346 2.81778C21.346 2.81778 21.346 2.81778 21.3454 2.81617C21.3092 2.80163 21.2208 2.76717 21.0882 2.72841C20.8279 2.65411 20.395 2.56097 19.8296 2.54913C19.8112 2.54805 19.7928 2.54698 19.7731 2.54805C19.635 2.54428 19.4889 2.54805 19.3372 2.55774C18.2328 2.62504 17.4316 2.88185 17.2566 2.94107C17.2443 2.9443 17.2327 2.94915 17.2204 2.95453C16.9896 2.64927 15.3817 1.80078 12.7725 1.33509C12.9173 1.0309 13.2102 0.739638 13.4607 0.528055C13.6178 0.516749 13.7762 0.50975 13.934 0.50652C16.3412 0.435992 18.6846 0.939915 20.7425 1.90792C20.8002 1.93269 20.8536 1.9596 20.9083 1.9876C21.273 2.41777 21.3632 2.82316 21.3632 2.82316Z" fill="url(#paint25_linear_237_345)"/>
<path id="Vector_27" opacity="0.3" d="M18.5434 2.72683C18.682 2.70582 18.8273 2.68753 18.9825 2.67533C19.1143 2.66516 19.2418 2.65974 19.3626 2.66381C19.3798 2.66245 19.3963 2.66381 19.4117 2.66516C19.9059 2.67601 20.2829 2.77495 20.5098 2.85423C20.6269 2.89489 20.7029 2.93217 20.7348 2.94708C20.7348 2.94911 20.7348 2.94911 20.7348 2.94911C20.7459 2.9525 20.7502 2.95453 20.7502 2.95453C20.7502 2.95453 20.6723 2.52082 20.3541 2.06C20.3069 2.03018 20.2603 2.00172 20.21 1.97529C18.6906 1.10042 16.9897 0.588097 15.2275 0.5C16.3324 1.24273 17.4379 1.98478 18.5434 2.72683Z" fill="url(#paint26_radial_237_345)"/>
<path id="Vector_28" d="M26.9237 15.8409L25.6582 11.4523L25.6999 11.3209C25.8682 10.8321 25.9276 10.3026 25.9703 9.79922C25.9731 9.75859 25.9751 9.7186 25.9775 9.67353C26.035 8.83683 25.9588 8.11694 25.8509 7.2923C25.9089 7.1793 26.1006 7.31515 26.2329 7.43704C26.3072 7.61225 26.3744 7.79254 26.441 7.97283C26.6922 8.65908 26.9031 9.38214 27.0699 10.1376C27.3824 11.5501 27.52 12.9765 27.4965 14.3738C27.4927 14.5464 27.4869 14.7204 27.4802 14.8918C27.1365 15.7044 26.9237 15.8409 26.9237 15.8409Z" fill="url(#paint27_linear_237_345)"/>
<path id="Vector_29" d="M25.662 7.34496L25.6739 7.415C25.6774 7.43311 25.6804 7.45062 25.684 7.46873C25.6946 7.53032 25.7101 7.61182 25.7249 7.70782C25.7919 8.11777 25.8762 8.81389 25.8139 9.5722C25.8115 9.61265 25.8103 9.64948 25.8062 9.68571C25.8038 9.70986 25.7996 9.73522 25.7967 9.75937C26.5014 10.7411 26.8976 11.7101 27.4991 12.7727C27.4409 11.8508 27.2879 10.9204 27.0299 9.99543C26.8377 9.31078 26.5969 8.6551 26.3104 8.03324C26.2344 7.86962 26.1579 7.70601 26.0737 7.54662C25.7243 7.21818 25.6377 7.18074 25.662 7.34496Z" fill="url(#paint28_radial_237_345)"/>
<path id="Vector_30" d="M20.5295 11.8791C20.5295 11.8791 22.6129 11.6381 23.623 11.5609C24.2642 11.512 24.955 11.582 25.2227 11.6834C26.1208 12.5601 26.9439 15.818 26.8828 15.9835C26.9237 16.6331 26.1604 17.6088 25.8304 18.2657C25.4998 18.9232 24.6849 20.1434 24.1873 20.7104C24.1873 20.7104 22.9221 21.2067 21.2601 21.316C19.5987 21.4246 19.5364 21.3111 19.5364 21.3111C19.5364 21.3111 18.0551 17.8721 17.6816 17.2357L20.5295 11.8791Z" fill="url(#paint29_linear_237_345)"/>
<path id="Vector_31" d="M11.1618 13.1923C11.3413 14.2525 11.4988 15.1062 11.5687 15.5494C11.6386 15.9939 11.6557 16.0502 12.8545 16.2485C14.052 16.4462 17.327 17.0799 17.7591 17.0679C18.1507 17.0566 18.0006 17.1578 18.7182 15.9142C19.3237 14.8629 20.2105 13.0281 20.4771 12.4411C20.7443 11.8547 20.933 11.4287 20.4593 10.8531C19.9862 10.2774 19.1454 9.26568 18.1826 8.42824C17.2192 7.59021 16.5487 7.14873 16.1265 7.26973C15.7036 7.39074 13.903 8.13772 12.4923 8.86733C11.0809 9.59574 10.9491 9.78863 10.9362 10.3793C10.924 10.9717 10.9185 11.7462 11.1618 13.1923Z" fill="url(#paint30_linear_237_345)"/>
<path id="Vector_32" d="M20.627 11.8541C20.3597 12.4486 19.4732 14.3086 18.8675 15.3749C18.1496 16.6361 18.2998 16.5329 17.9081 16.5444C17.4758 16.5566 14.1996 15.9135 13.0017 15.7137C11.8025 15.5127 11.7854 15.4551 11.7155 15.0051C11.6456 14.5557 11.4886 13.6904 11.3084 12.6156C11.065 11.1503 11.0705 10.3645 11.0828 9.76519C11.0834 9.74333 11.0858 9.72572 11.0865 9.70508C10.97 9.87571 10.9412 10.0506 10.9363 10.2892C10.924 10.8886 10.9185 11.6744 11.1619 13.1396C11.3415 14.2145 11.499 15.0798 11.5689 15.5291C11.6388 15.9797 11.656 16.0368 12.8552 16.2378C14.0531 16.4382 17.3293 17.0806 17.7615 17.0685C18.1533 17.057 18.0031 17.1596 18.721 15.8989C19.3267 14.8332 20.2132 12.9733 20.4805 12.3782C20.6141 12.0806 20.7282 11.8244 20.7496 11.5693C20.7122 11.661 20.6718 11.7551 20.627 11.8541Z" fill="#194E94"/>
<path id="Vector_33" d="M6.63672 8.47754C6.63672 8.47754 9.89195 9.93623 10.1309 10.1992C10.3692 10.4616 10.2349 10.7595 10.3915 12.2572C10.5482 13.7543 10.8833 15.6627 10.9286 15.8008C10.9728 15.9395 10.5869 15.8466 10.1369 13.422C9.95969 12.4652 10.0407 10.7779 9.45647 10.3768C8.87219 9.97519 6.83087 8.81271 6.63672 8.47754Z" fill="url(#paint31_radial_237_345)"/>
<path id="Vector_34" opacity="0.7" d="M11.5676 16.4551C11.9196 16.4613 15.52 17.1766 16.5089 17.368C17.4984 17.5587 17.5644 17.4798 18.001 18.251C18.3287 18.8296 19.5005 21.1189 19.521 21.3178C19.5409 21.516 19.2722 21.104 18.4413 19.5871C17.4705 17.8117 17.3902 18.0416 17.083 17.9509C16.6408 17.8185 12.5701 16.9957 11.9899 16.7646C11.4108 16.5321 11.5601 16.5794 11.5676 16.4551Z" fill="url(#paint32_radial_237_345)"/>
<path id="Vector_35" d="M12.159 1.11328C12.159 1.11328 9.85772 1.85971 8.5803 2.62581C7.30227 3.39364 7.25 3.56781 7.25 3.56781C7.25 3.56781 7.36416 3.13326 9.09523 2.15307C10.8269 1.17288 11.8435 1.12659 12.159 1.11328Z" fill="url(#paint33_radial_237_345)"/>
<path id="Vector_36" opacity="0.3" d="M10.3182 23.8176C10.3182 23.8176 9.5361 23.0061 8.95034 21.529C8.36332 20.0513 8.67234 20.0753 7.75032 19.6471C6.82894 19.2182 5.63589 18.4721 5.40918 18.2949C5.40918 18.2949 7.38684 19.232 7.87001 19.3185C8.35255 19.405 8.43614 19.4104 8.57989 19.7143C8.72237 20.0177 9.36512 22.1639 10.3182 23.8176Z" fill="url(#paint34_linear_237_345)"/>
<path id="Vector_37" d="M20.7499 2.81993C20.7499 2.81993 19.4864 2.43906 18.2632 2.70923C17.04 2.9794 17.1512 3.02378 16.972 2.85651C16.7928 2.68826 15.3988 2.02258 14 1.72754C14 1.72754 14.5833 1.79825 15.3994 1.97918C16.2155 2.1606 16.889 2.72386 17.334 2.67705C17.7779 2.63023 19.6806 2.29519 20.7499 2.81993Z" fill="url(#paint35_radial_237_345)"/>
<path id="Vector_38" opacity="0.5" d="M17.0667 26.2712C16.8138 26.0334 16.4695 25.7114 16.2153 25.3364C15.9591 24.9615 16.0358 25.0913 15.1191 25.1414C14.203 25.1921 12.1203 24.6424 11.7539 24.4923C11.3868 24.3422 11.5687 24.5032 11.802 24.625C12.036 24.7476 13.5037 25.2276 14.2429 25.3263C15.3625 25.4749 15.7322 25.3488 15.9858 25.5953C16.2394 25.8441 17.0978 26.3002 17.0667 26.2712Z" fill="url(#paint36_radial_237_345)"/>
<path id="Vector_39" opacity="0.7" d="M20.3384 25.9102C20.423 25.8692 20.507 25.8238 20.5891 25.7754C22.9509 24.4572 24.9182 22.4305 26.1463 19.8854C26.1512 19.875 26.1573 19.8652 26.1598 19.8548C26.4754 19.2015 26.7395 18.5133 26.9516 17.7932C27.6667 15.3504 27.66 12.8672 27.0551 10.5746C27.0502 10.5525 27.0459 10.5348 27.0392 10.5127C26.5802 8.80472 25.7915 7.20399 24.7208 5.80427C24.6356 5.68967 24.5468 5.57752 24.4567 5.46721C22.7934 3.42339 20.5168 1.84595 17.7939 1.04681C16.833 0.765519 15.8647 0.596376 14.9038 0.533254C14.7475 0.520385 14.5882 0.510579 14.4313 0.507515C12.0253 0.42662 9.68179 1.00146 7.62633 2.10396C7.5675 2.13276 7.5148 2.16401 7.46025 2.19588C5.23872 3.42401 3.36282 5.27416 2.11999 7.59314C2.02622 7.76228 1.93859 7.93755 1.8534 8.11037C1.53228 8.77407 1.26201 9.47455 1.04691 10.2051C0.649178 11.5692 0.473293 12.9481 0.502708 14.2988C0.508224 14.4655 0.514965 14.6328 0.524158 14.8001C0.725782 18.1842 2.20456 21.3648 4.61117 23.6979C4.70432 23.7886 4.7987 23.8781 4.89614 23.9681C6.07953 25.051 7.47558 25.9366 9.03831 26.5513C9.23565 26.6297 9.43114 26.7026 9.63644 26.7706L9.63828 26.7713C9.82458 26.835 10.0127 26.8944 10.2058 26.9527C13.7277 27.9841 17.3374 27.5134 20.3384 25.9102Z" fill="url(#paint37_radial_237_345)"/>
<path id="Union" d="M17.681 2.84846C4.08727 -3.30566 -3.69632 17.7192 5.47308 21.363C6.89001 14.3822 10.9246 6.96733 17.681 2.84846Z" fill="url(#paint38_linear_237_345)"/>
<path id="Vector_40" opacity="0.49" d="M27.4998 15.2275C27.4998 15.2275 27.2863 15.7456 27.0734 15.9765C27.0734 15.9765 26.7937 16.9838 26.0191 18.3322C25.2431 19.6807 24.4316 20.7502 24.4316 20.7502C24.4316 20.7502 25.054 20.1885 25.6139 19.3511C26.1739 18.5137 26.9729 17.1633 27.2089 16.1143C27.2089 16.1143 27.4554 15.6886 27.4998 15.2275Z" fill="url(#paint39_linear_237_345)"/>
<path id="Vector_41" d="M20.7502 12.0958C20.728 11.8543 22.261 11.5899 23.3667 11.5566C24.4723 11.5233 25.0588 11.5311 25.3391 12.0038C25.62 12.4758 25.659 12.7722 25.659 12.7722C25.659 12.7722 25.5678 12.6253 25.1416 12.1546C24.716 11.6832 23.8877 11.7596 22.7286 11.7981C21.9201 11.8249 20.7652 12.2571 20.7502 12.0958Z" fill="url(#paint40_linear_237_345)"/>
</g>
<defs>
<linearGradient id="paint0_linear_237_345" x1="6.17445" y1="24.635" x2="21.7139" y2="3.51677" gradientUnits="userSpaceOnUse">
<stop stop-color="#595A59"/>
<stop offset="0.0248" stop-color="#636463"/>
<stop offset="0.1614" stop-color="#959695"/>
<stop offset="0.2903" stop-color="#BCBDBC"/>
<stop offset="0.4079" stop-color="#D8DAD9"/>
<stop offset="0.5102" stop-color="#E9EBEA"/>
<stop offset="0.586" stop-color="#EFF1F0"/>
<stop offset="1" stop-color="white"/>
</linearGradient>
<linearGradient id="paint1_linear_237_345" x1="-4.20992" y1="17.4096" x2="34.7929" y2="5.51799" gradientUnits="userSpaceOnUse">
<stop stop-color="#595A59"/>
<stop offset="0.0248" stop-color="#636463"/>
<stop offset="0.1614" stop-color="#959695"/>
<stop offset="0.2903" stop-color="#BCBDBC"/>
<stop offset="0.4079" stop-color="#D8DAD9"/>
<stop offset="0.5102" stop-color="#E9EBEA"/>
<stop offset="0.586" stop-color="#EFF1F0"/>
<stop offset="1" stop-color="white"/>
</linearGradient>
<linearGradient id="paint2_linear_237_345" x1="4.58655" y1="10.8502" x2="0.524922" y2="19.6993" gradientUnits="userSpaceOnUse">
<stop/>
<stop offset="0.0082" stop-color="#303030"/>
<stop offset="0.0168" stop-color="#5B5B5B"/>
<stop offset="0.0264" stop-color="#838383"/>
<stop offset="0.0367" stop-color="#A4A4A4"/>
<stop offset="0.048" stop-color="#C1C1C1"/>
<stop offset="0.0606" stop-color="#D8D8D8"/>
<stop offset="0.075" stop-color="#E9E9E9"/>
<stop offset="0.0924" stop-color="#F6F6F6"/>
<stop offset="0.116" stop-color="#FDFDFD"/>
<stop offset="0.172" stop-color="white"/>
<stop offset="0.8656" stop-color="white"/>
<stop offset="0.8963" stop-color="#FCFCFC"/>
<stop offset="0.9146" stop-color="#F4F4F4"/>
<stop offset="0.9297" stop-color="#E6E6E6"/>
<stop offset="0.943" stop-color="#D2D2D2"/>
<stop offset="0.9551" stop-color="#B7B7B7"/>
<stop offset="0.9665" stop-color="#979797"/>
<stop offset="0.9771" stop-color="#717171"/>
<stop offset="0.9873" stop-color="#444444"/>
<stop offset="0.9967" stop-color="#131313"/>
<stop offset="1"/>
</linearGradient>
<linearGradient id="paint3_linear_237_345" x1="3.92874" y1="23.3055" x2="17.3746" y2="9.70804" gradientUnits="userSpaceOnUse">
<stop stop-color="#595A59"/>
<stop offset="0.0248" stop-color="#636463"/>
<stop offset="0.1614" stop-color="#959695"/>
<stop offset="0.2903" stop-color="#BCBDBC"/>
<stop offset="0.4079" stop-color="#D8DAD9"/>
<stop offset="0.5102" stop-color="#E9EBEA"/>
<stop offset="0.586" stop-color="#EFF1F0"/>
<stop offset="1" stop-color="white"/>
</linearGradient>
<linearGradient id="paint4_linear_237_345" x1="5.28661" y1="21.3432" x2="0.790664" y2="29.0744" gradientUnits="userSpaceOnUse">
<stop/>
<stop offset="0.0082" stop-color="#303030"/>
<stop offset="0.0168" stop-color="#5B5B5B"/>
<stop offset="0.0264" stop-color="#838383"/>
<stop offset="0.0367" stop-color="#A4A4A4"/>
<stop offset="0.048" stop-color="#C1C1C1"/>
<stop offset="0.0606" stop-color="#D8D8D8"/>
<stop offset="0.075" stop-color="#E9E9E9"/>
<stop offset="0.0924" stop-color="#F6F6F6"/>
<stop offset="0.116" stop-color="#FDFDFD"/>
<stop offset="0.172" stop-color="white"/>
<stop offset="0.8656" stop-color="white"/>
<stop offset="0.8963" stop-color="#FCFCFC"/>
<stop offset="0.9146" stop-color="#F4F4F4"/>
<stop offset="0.9297" stop-color="#E6E6E6"/>
<stop offset="0.943" stop-color="#D2D2D2"/>
<stop offset="0.9551" stop-color="#B7B7B7"/>
<stop offset="0.9665" stop-color="#979797"/>
<stop offset="0.9771" stop-color="#717171"/>
<stop offset="0.9873" stop-color="#444444"/>
<stop offset="0.9967" stop-color="#131313"/>
<stop offset="1"/>
</linearGradient>
<linearGradient id="paint5_linear_237_345" x1="7.83681" y1="25.2649" x2="0.317327" y2="19.3474" gradientUnits="userSpaceOnUse">
<stop/>
<stop offset="0.0111" stop-color="#303030"/>
<stop offset="0.0228" stop-color="#5B5B5B"/>
<stop offset="0.0357" stop-color="#838383"/>
<stop offset="0.0498" stop-color="#A4A4A4"/>
<stop offset="0.065" stop-color="#C1C1C1"/>
<stop offset="0.0821" stop-color="#D8D8D8"/>
<stop offset="0.1017" stop-color="#E9E9E9"/>
<stop offset="0.1253" stop-color="#F6F6F6"/>
<stop offset="0.1572" stop-color="#FDFDFD"/>
<stop offset="0.2333" stop-color="white"/>
<stop offset="0.8248" stop-color="white"/>
<stop offset="0.8648" stop-color="#FCFCFC"/>
<stop offset="0.8886" stop-color="#F4F4F4"/>
<stop offset="0.9083" stop-color="#E6E6E6"/>
<stop offset="0.9257" stop-color="#D2D2D2"/>
<stop offset="0.9415" stop-color="#B7B7B7"/>
<stop offset="0.9563" stop-color="#979797"/>
<stop offset="0.9702" stop-color="#717171"/>
<stop offset="0.9834" stop-color="#444444"/>
<stop offset="0.9956" stop-color="#131313"/>
<stop offset="1"/>
</linearGradient>
<linearGradient id="paint6_linear_237_345" x1="12.8504" y1="28.0886" x2="14.1191" y2="17.5385" gradientUnits="userSpaceOnUse">
<stop stop-color="#595A59"/>
<stop offset="0.0248" stop-color="#636463"/>
<stop offset="0.1614" stop-color="#959695"/>
<stop offset="0.2903" stop-color="#BCBDBC"/>
<stop offset="0.4079" stop-color="#D8DAD9"/>
<stop offset="0.5102" stop-color="#E9EBEA"/>
<stop offset="0.586" stop-color="#EFF1F0"/>
<stop offset="1" stop-color="white"/>
</linearGradient>
<linearGradient id="paint7_linear_237_345" x1="21.5281" y1="26.8988" x2="27.7323" y2="16.0253" gradientUnits="userSpaceOnUse">
<stop stop-color="#595A59"/>
<stop offset="0.0248" stop-color="#636463"/>
<stop offset="0.1614" stop-color="#959695"/>
<stop offset="0.2903" stop-color="#BCBDBC"/>
<stop offset="0.4079" stop-color="#D8DAD9"/>
<stop offset="0.5102" stop-color="#E9EBEA"/>
<stop offset="0.586" stop-color="#EFF1F0"/>
<stop offset="1" stop-color="white"/>
</linearGradient>
<linearGradient id="paint8_linear_237_345" x1="-3.76113" y1="8.50615" x2="16.8793" y2="-1.02611" gradientUnits="userSpaceOnUse">
<stop stop-color="#595A59"/>
<stop offset="0.0248" stop-color="#636463"/>
<stop offset="0.1614" stop-color="#959695"/>
<stop offset="0.2903" stop-color="#BCBDBC"/>
<stop offset="0.4079" stop-color="#D8DAD9"/>
<stop offset="0.5102" stop-color="#E9EBEA"/>
<stop offset="0.586" stop-color="#EFF1F0"/>
<stop offset="1" stop-color="white"/>
</linearGradient>
<linearGradient id="paint9_linear_237_345" x1="27.9291" y1="2.44897" x2="23.3191" y2="5.44533" gradientUnits="userSpaceOnUse">
<stop stop-color="#595A59"/>
<stop offset="0.0248" stop-color="#636463"/>
<stop offset="0.1614" stop-color="#959695"/>
<stop offset="0.2903" stop-color="#BCBDBC"/>
<stop offset="0.4079" stop-color="#D8DAD9"/>
<stop offset="0.5102" stop-color="#E9EBEA"/>
<stop offset="0.586" stop-color="#EFF1F0"/>
<stop offset="1" stop-color="white"/>
</linearGradient>
<linearGradient id="paint10_linear_237_345" x1="4.13927" y1="10.352" x2="14.7292" y2="2.77699" gradientUnits="userSpaceOnUse">
<stop stop-color="#595A59"/>
<stop offset="0.0248" stop-color="#636463"/>
<stop offset="0.1614" stop-color="#959695"/>
<stop offset="0.2903" stop-color="#BCBDBC"/>
<stop offset="0.4079" stop-color="#D8DAD9"/>
<stop offset="0.5102" stop-color="#E9EBEA"/>
<stop offset="0.586" stop-color="#EFF1F0"/>
<stop offset="1" stop-color="white"/>
</linearGradient>
<linearGradient id="paint11_linear_237_345" x1="13.7342" y1="0.701689" x2="10.254" y2="9.50511" gradientUnits="userSpaceOnUse">
<stop/>
<stop offset="0.0082" stop-color="#303030"/>
<stop offset="0.0168" stop-color="#5B5B5B"/>
<stop offset="0.0264" stop-color="#838383"/>
<stop offset="0.0367" stop-color="#A4A4A4"/>
<stop offset="0.048" stop-color="#C1C1C1"/>
<stop offset="0.0606" stop-color="#D8D8D8"/>
<stop offset="0.075" stop-color="#E9E9E9"/>
<stop offset="0.0924" stop-color="#F6F6F6"/>
<stop offset="0.116" stop-color="#FDFDFD"/>
<stop offset="0.172" stop-color="white"/>
<stop offset="0.8656" stop-color="white"/>
<stop offset="0.8963" stop-color="#FCFCFC"/>
<stop offset="0.9146" stop-color="#F4F4F4"/>
<stop offset="0.9297" stop-color="#E6E6E6"/>
<stop offset="0.943" stop-color="#D2D2D2"/>
<stop offset="0.9551" stop-color="#B7B7B7"/>
<stop offset="0.9665" stop-color="#979797"/>
<stop offset="0.9771" stop-color="#717171"/>
<stop offset="0.9873" stop-color="#444444"/>
<stop offset="0.9967" stop-color="#131313"/>
<stop offset="1"/>
</linearGradient>
<linearGradient id="paint12_linear_237_345" x1="2.93068" y1="17.8579" x2="20.8492" y2="2.20471" gradientUnits="userSpaceOnUse">
<stop stop-color="#595A59"/>
<stop offset="0.0248" stop-color="#636463"/>
<stop offset="0.1614" stop-color="#959695"/>
<stop offset="0.2903" stop-color="#BCBDBC"/>
<stop offset="0.4079" stop-color="#D8DAD9"/>
<stop offset="0.5102" stop-color="#E9EBEA"/>
<stop offset="0.586" stop-color="#EFF1F0"/>
<stop offset="1" stop-color="white"/>
</linearGradient>
<linearGradient id="paint13_linear_237_345" x1="10.6957" y1="17.3666" x2="4.01119" y2="10.3084" gradientUnits="userSpaceOnUse">
<stop/>
<stop offset="0.0082" stop-color="#303030"/>
<stop offset="0.0168" stop-color="#5B5B5B"/>
<stop offset="0.0264" stop-color="#838383"/>
<stop offset="0.0367" stop-color="#A4A4A4"/>
<stop offset="0.048" stop-color="#C1C1C1"/>
<stop offset="0.0606" stop-color="#D8D8D8"/>
<stop offset="0.075" stop-color="#E9E9E9"/>
<stop offset="0.0924" stop-color="#F6F6F6"/>
<stop offset="0.116" stop-color="#FDFDFD"/>
<stop offset="0.172" stop-color="white"/>
<stop offset="0.8656" stop-color="white"/>
<stop offset="0.8963" stop-color="#FCFCFC"/>
<stop offset="0.9146" stop-color="#F4F4F4"/>
<stop offset="0.9297" stop-color="#E6E6E6"/>
<stop offset="0.943" stop-color="#D2D2D2"/>
<stop offset="0.9551" stop-color="#B7B7B7"/>
<stop offset="0.9665" stop-color="#979797"/>
<stop offset="0.9771" stop-color="#717171"/>
<stop offset="0.9873" stop-color="#444444"/>
<stop offset="0.9967" stop-color="#131313"/>
<stop offset="1"/>
</linearGradient>
<linearGradient id="paint14_linear_237_345" x1="9.20952" y1="23.59" x2="33.3563" y2="6.17018" gradientUnits="userSpaceOnUse">
<stop stop-color="#595A59"/>
<stop offset="0.0248" stop-color="#636463"/>
<stop offset="0.1614" stop-color="#959695"/>
<stop offset="0.2903" stop-color="#BCBDBC"/>
<stop offset="0.4079" stop-color="#D8DAD9"/>
<stop offset="0.5102" stop-color="#E9EBEA"/>
<stop offset="0.586" stop-color="#EFF1F0"/>
<stop offset="1" stop-color="white"/>
</linearGradient>
<linearGradient id="paint15_linear_237_345" x1="19.173" y1="18.5948" x2="9.37903" y2="22.0821" gradientUnits="userSpaceOnUse">
<stop/>
<stop offset="0.0082" stop-color="#303030"/>
<stop offset="0.0168" stop-color="#5B5B5B"/>
<stop offset="0.0264" stop-color="#838383"/>
<stop offset="0.0367" stop-color="#A4A4A4"/>
<stop offset="0.048" stop-color="#C1C1C1"/>
<stop offset="0.0606" stop-color="#D8D8D8"/>
<stop offset="0.075" stop-color="#E9E9E9"/>
<stop offset="0.0924" stop-color="#F6F6F6"/>
<stop offset="0.116" stop-color="#FDFDFD"/>
<stop offset="0.172" stop-color="white"/>
<stop offset="0.8656" stop-color="white"/>
<stop offset="0.8963" stop-color="#FCFCFC"/>
<stop offset="0.9146" stop-color="#F4F4F4"/>
<stop offset="0.9297" stop-color="#E6E6E6"/>
<stop offset="0.943" stop-color="#D2D2D2"/>
<stop offset="0.9551" stop-color="#B7B7B7"/>
<stop offset="0.9665" stop-color="#979797"/>
<stop offset="0.9771" stop-color="#717171"/>
<stop offset="0.9873" stop-color="#444444"/>
<stop offset="0.9967" stop-color="#131313"/>
<stop offset="1"/>
</linearGradient>
<linearGradient id="paint16_linear_237_345" x1="15.278" y1="15.9745" x2="13.3013" y2="25.023" gradientUnits="userSpaceOnUse">
<stop/>
<stop offset="0.0082" stop-color="#303030"/>
<stop offset="0.0168" stop-color="#5B5B5B"/>
<stop offset="0.0264" stop-color="#838383"/>
<stop offset="0.0367" stop-color="#A4A4A4"/>
<stop offset="0.048" stop-color="#C1C1C1"/>
<stop offset="0.0606" stop-color="#D8D8D8"/>
<stop offset="0.075" stop-color="#E9E9E9"/>
<stop offset="0.0924" stop-color="#F6F6F6"/>
<stop offset="0.116" stop-color="#FDFDFD"/>
<stop offset="0.172" stop-color="white"/>
<stop offset="0.8656" stop-color="white"/>
<stop offset="0.8963" stop-color="#FCFCFC"/>
<stop offset="0.9146" stop-color="#F4F4F4"/>
<stop offset="0.9297" stop-color="#E6E6E6"/>
<stop offset="0.943" stop-color="#D2D2D2"/>
<stop offset="0.9551" stop-color="#B7B7B7"/>
<stop offset="0.9665" stop-color="#979797"/>
<stop offset="0.9771" stop-color="#717171"/>
<stop offset="0.9873" stop-color="#444444"/>
<stop offset="0.9967" stop-color="#131313"/>
<stop offset="1"/>
</linearGradient>
<linearGradient id="paint17_linear_237_345" x1="-4.11606" y1="26.4802" x2="26.136" y2="2.48412" gradientUnits="userSpaceOnUse">
<stop stop-color="#595A59"/>
<stop offset="0.0248" stop-color="#636463"/>
<stop offset="0.1614" stop-color="#959695"/>
<stop offset="0.2903" stop-color="#BCBDBC"/>
<stop offset="0.4079" stop-color="#D8DAD9"/>
<stop offset="0.5102" stop-color="#E9EBEA"/>
<stop offset="0.586" stop-color="#EFF1F0"/>
<stop offset="1" stop-color="white"/>
</linearGradient>
<linearGradient id="paint18_linear_237_345" x1="27.0521" y1="7.6887" x2="16.1716" y2="6.95527" gradientUnits="userSpaceOnUse">
<stop/>
<stop offset="0.0082" stop-color="#303030"/>
<stop offset="0.0168" stop-color="#5B5B5B"/>
<stop offset="0.0264" stop-color="#838383"/>
<stop offset="0.0367" stop-color="#A4A4A4"/>
<stop offset="0.048" stop-color="#C1C1C1"/>
<stop offset="0.0606" stop-color="#D8D8D8"/>
<stop offset="0.075" stop-color="#E9E9E9"/>
<stop offset="0.0924" stop-color="#F6F6F6"/>
<stop offset="0.116" stop-color="#FDFDFD"/>
<stop offset="0.172" stop-color="white"/>
<stop offset="0.8656" stop-color="white"/>
<stop offset="0.8963" stop-color="#FCFCFC"/>
<stop offset="0.9146" stop-color="#F4F4F4"/>
<stop offset="0.9297" stop-color="#E6E6E6"/>
<stop offset="0.943" stop-color="#D2D2D2"/>
<stop offset="0.9551" stop-color="#B7B7B7"/>
<stop offset="0.9665" stop-color="#979797"/>
<stop offset="0.9771" stop-color="#717171"/>
<stop offset="0.9873" stop-color="#444444"/>
<stop offset="0.9967" stop-color="#131313"/>
<stop offset="1"/>
</linearGradient>
<linearGradient id="paint19_linear_237_345" x1="20.7909" y1="2.61392" x2="21.177" y2="11.4743" gradientUnits="userSpaceOnUse">
<stop/>
<stop offset="0.0082" stop-color="#303030"/>
<stop offset="0.0168" stop-color="#5B5B5B"/>
<stop offset="0.0264" stop-color="#838383"/>
<stop offset="0.0367" stop-color="#A4A4A4"/>
<stop offset="0.048" stop-color="#C1C1C1"/>
<stop offset="0.0606" stop-color="#D8D8D8"/>
<stop offset="0.075" stop-color="#E9E9E9"/>
<stop offset="0.0924" stop-color="#F6F6F6"/>
<stop offset="0.116" stop-color="#FDFDFD"/>
<stop offset="0.172" stop-color="white"/>
<stop offset="0.8656" stop-color="white"/>
<stop offset="0.8963" stop-color="#FCFCFC"/>
<stop offset="0.9146" stop-color="#F4F4F4"/>
<stop offset="0.9297" stop-color="#E6E6E6"/>
<stop offset="0.943" stop-color="#D2D2D2"/>
<stop offset="0.9551" stop-color="#B7B7B7"/>
<stop offset="0.9665" stop-color="#979797"/>
<stop offset="0.9771" stop-color="#717171"/>
<stop offset="0.9873" stop-color="#444444"/>
<stop offset="0.9967" stop-color="#131313"/>
<stop offset="1"/>
</linearGradient>
<linearGradient id="paint20_linear_237_345" x1="23.1901" y1="21.0673" x2="18.6075" y2="27.2193" gradientUnits="userSpaceOnUse">
<stop stop-color="#8CDDFF"/>
<stop offset="0.4375" stop-color="#1E92FF"/>
<stop offset="1" stop-color="#0B53BC"/>
</linearGradient>
<radialGradient id="paint21_radial_237_345" cx="0" cy="0" r="1" gradientUnits="userSpaceOnUse" gradientTransform="translate(29.1784 14.5733) rotate(84.189) scale(17.7996 18.2541)">
<stop stop-color="white"/>
<stop offset="0.1152" stop-color="white" stop-opacity="0.8963"/>
<stop offset="1" stop-color="white" stop-opacity="0.1"/>
</radialGradient>
<linearGradient id="paint22_linear_237_345" x1="9.34278" y1="18.0835" x2="4.12817" y2="23.1255" gradientUnits="userSpaceOnUse">
<stop stop-color="#8CDDFF"/>
<stop offset="0.4375" stop-color="#1E92FF"/>
<stop offset="1" stop-color="#0B53BC"/>
</linearGradient>
<linearGradient id="paint23_linear_237_345" x1="6.45207" y1="5.19678" x2="1.37454" y2="9.21361" gradientUnits="userSpaceOnUse">
<stop stop-color="#8CDDFF"/>
<stop offset="0.4375" stop-color="#1E92FF"/>
<stop offset="1" stop-color="#0B53BC"/>
</linearGradient>
<radialGradient id="paint24_radial_237_345" cx="0" cy="0" r="1" gradientUnits="userSpaceOnUse" gradientTransform="translate(2.84572 1.81012) rotate(84.2382) scale(8.73652 8.88471)">
<stop stop-color="white"/>
<stop offset="0.1152" stop-color="white" stop-opacity="0.8848"/>
<stop offset="1" stop-color="white" stop-opacity="0"/>
</radialGradient>
<linearGradient id="paint25_linear_237_345" x1="20.1217" y1="0.83838" x2="19.2439" y2="4.07899" gradientUnits="userSpaceOnUse">
<stop stop-color="#8CDDFF"/>
<stop offset="0.4375" stop-color="#1E92FF"/>
<stop offset="1" stop-color="#0B53BC"/>
</linearGradient>
<radialGradient id="paint26_radial_237_345" cx="0" cy="0" r="1" gradientUnits="userSpaceOnUse" gradientTransform="translate(16.8892 3.8307) rotate(84.8725) scale(5.40312 5.02922)">
<stop stop-color="white"/>
<stop offset="0.1152" stop-color="white" stop-opacity="0.8848"/>
<stop offset="1" stop-color="white" stop-opacity="0"/>
</radialGradient>
<linearGradient id="paint27_linear_237_345" x1="27.233" y1="8.43433" x2="24.6151" y2="9.02607" gradientUnits="userSpaceOnUse">
<stop stop-color="#8CDDFF"/>
<stop offset="0.4375" stop-color="#1E92FF"/>
<stop offset="1" stop-color="#0B53BC"/>
</linearGradient>
<radialGradient id="paint28_radial_237_345" cx="0" cy="0" r="1" gradientUnits="userSpaceOnUse" gradientTransform="translate(22.4516 14.8645) rotate(84.4342) scale(8.86432 8.35392)">
<stop stop-color="white"/>
<stop offset="0.1152" stop-color="white" stop-opacity="0.9193"/>
<stop offset="1" stop-color="white" stop-opacity="0.3"/>
</radialGradient>
<linearGradient id="paint29_linear_237_345" x1="16.7801" y1="20.9374" x2="26.8545" y2="11.8153" gradientUnits="userSpaceOnUse">
<stop stop-color="#595A59"/>
<stop offset="0.0248" stop-color="#636463"/>
<stop offset="0.1614" stop-color="#959695"/>
<stop offset="0.2903" stop-color="#BCBDBC"/>
<stop offset="0.4079" stop-color="#D8DAD9"/>
<stop offset="0.5102" stop-color="#E9EBEA"/>
<stop offset="0.586" stop-color="#EFF1F0"/>
<stop offset="1" stop-color="white"/>
</linearGradient>
<linearGradient id="paint30_linear_237_345" x1="19.3308" y1="8.60352" x2="12.3839" y2="15.9311" gradientUnits="userSpaceOnUse">
<stop stop-color="#8CDDFF"/>
<stop offset="0.4375" stop-color="#1E92FF"/>
<stop offset="1" stop-color="#0B53BC"/>
</linearGradient>
<radialGradient id="paint31_radial_237_345" cx="0" cy="0" r="1" gradientUnits="userSpaceOnUse" gradientTransform="translate(10.532 10.2812) rotate(84.0224) scale(7.99276 8.42839)">
<stop stop-color="white"/>
<stop offset="0.1152" stop-color="white" stop-opacity="0.8848"/>
<stop offset="1" stop-color="white" stop-opacity="0"/>
</radialGradient>
<radialGradient id="paint32_radial_237_345" cx="0" cy="0" r="1" gradientUnits="userSpaceOnUse" gradientTransform="translate(17.661 17.6481) rotate(84.3309) scale(8.28869 8.29544)">
<stop stop-color="white" stop-opacity="0"/>
<stop offset="0.5617" stop-color="white" stop-opacity="0.7"/>
<stop offset="0.8435" stop-color="white" stop-opacity="0.7"/>
</radialGradient>
<radialGradient id="paint33_radial_237_345" cx="0" cy="0" r="1" gradientUnits="userSpaceOnUse" gradientTransform="translate(10.7957 4.1284) rotate(84.1195) scale(8.89463 9.22932)">
<stop stop-color="white"/>
<stop offset="0.1152" stop-color="white" stop-opacity="0.8963"/>
<stop offset="1" stop-color="white" stop-opacity="0.1"/>
</radialGradient>
<linearGradient id="paint34_linear_237_345" x1="7.55387" y1="18.0934" x2="8.11198" y2="24.0254" gradientUnits="userSpaceOnUse">
<stop stop-color="white"/>
<stop offset="1" stop-color="white" stop-opacity="0"/>
</linearGradient>
<radialGradient id="paint35_radial_237_345" cx="0" cy="0" r="1" gradientUnits="userSpaceOnUse" gradientTransform="translate(22.1826 3.45839) rotate(83.0267) scale(9.58265 11.7572)">
<stop stop-color="white"/>
<stop offset="0.1152" stop-color="white" stop-opacity="0.9193"/>
<stop offset="1" stop-color="white" stop-opacity="0.3"/>
</radialGradient>
<radialGradient id="paint36_radial_237_345" cx="0" cy="0" r="1" gradientUnits="userSpaceOnUse" gradientTransform="translate(16.0256 22.8385) rotate(85.0442) scale(13.6126 11.9279)">
<stop stop-color="white"/>
<stop offset="0.1152" stop-color="white" stop-opacity="0.8963"/>
<stop offset="1" stop-color="white" stop-opacity="0.1"/>
</radialGradient>
<radialGradient id="paint37_radial_237_345" cx="0" cy="0" r="1" gradientUnits="userSpaceOnUse" gradientTransform="translate(9.49938 10.4999) rotate(-158.874) scale(20.4859 20.4858)">
<stop offset="0.4302" stop-color="#657765" stop-opacity="0"/>
<stop offset="0.821826" stop-color="#272527" stop-opacity="0.7"/>
<stop offset="1" stop-color="#151D18" stop-opacity="0.7"/>
</radialGradient>
<linearGradient id="paint38_linear_237_345" x1="3.18287" y1="6.05674" x2="11.366" y2="12.4004" gradientUnits="userSpaceOnUse">
<stop stop-color="white"/>
<stop offset="0.897752" stop-color="white" stop-opacity="0"/>
</linearGradient>
<linearGradient id="paint39_linear_237_345" x1="27.4029" y1="15.8421" x2="24.3444" y2="20.9672" gradientUnits="userSpaceOnUse">
<stop stop-color="white"/>
<stop offset="0.9966" stop-color="white" stop-opacity="0"/>
</linearGradient>
<linearGradient id="paint40_linear_237_345" x1="25.5025" y1="12.3308" x2="20.3565" y2="11.5923" gradientUnits="userSpaceOnUse">
<stop stop-color="white" stop-opacity="0.3"/>
<stop offset="1" stop-color="white"/>
</linearGradient>
</defs>
</svg>
